<?xml version="1.0" encoding="UTF-8"?>
<!DOCTYPE svg PUBLIC "-//W3C//DTD SVG 1.1//EN" "http://www.w3.org/Graphics/SVG/1.1/DTD/svg11.dtd">
<!-- Creator: CorelDRAW 2018 (64 Bit Versão de avaliação) -->
<svg xmlns="http://www.w3.org/2000/svg" xml:space="preserve" width="285.75mm" height="211.667mm" version="1.1" style="shape-rendering:geometricPrecision; text-rendering:geometricPrecision; image-rendering:optimizeQuality; fill-rule:evenodd; clip-rule:evenodd"
viewBox="0 0 28575 21166.66"
 xmlns:xlink="http://www.w3.org/1999/xlink">
 <defs>
  <style type="text/css">
   <![CDATA[
    .str0 {stroke:black;stroke-width:52.91;stroke-miterlimit:22.9256}
    .fil2 {fill:black}
    .fil1 {fill:#050506}
    .fil0 {fill:#EA192C}
   ]]>
  </style>
 </defs>
 <g id="Camada_x0020_1">
  <metadata id="CorelCorpID_0Corel-Layer"/>
  <g id="_3023641852336">
   <path class="fil0" d="M20022.54 15828.23c11.1,-100.82 94.12,-293.99 133.35,-404.35 30.08,-84.66 82.18,-336.15 232.18,-254.3 42.45,23.17 425.36,614.39 317.51,702.32 -3.32,2.71 -567.13,62.01 -683.04,-43.67zm-3699.68 -1528.8c85.91,-63.47 243.17,-13.93 307.32,43.32 235.2,209.94 183.4,1049.22 -318.71,926.3 -108.3,-26.51 -76.94,-184.95 -74.77,-292.54 3.44,-170.76 -31.3,-590.3 86.16,-677.08zm5625.51 1516.86c-169.27,-408.29 -363.66,-797 -565,-1204.59 -158.09,-320.06 -461.57,-880.42 -864,-912.72 -819.83,-65.8 -592.43,694.17 -708.05,1069.73 -136.24,442.52 -321.88,838.69 -502.35,1269.2 -94.58,225.6 -168.82,394.62 -273.65,602.25 -138.41,274.17 -219.21,142.71 -462.04,372.14l-26.89 23.7c-26.27,-254.87 -238.68,-138.36 -319.5,-316.53 -77.9,-171.74 -34.3,-648.07 -327.85,-938.25 -96.09,-94.97 -262.82,-162.83 -379.43,-228.47 -3.44,-197.36 43.56,-101.76 205.78,-247.23 262.55,-235.44 319.83,-660.06 210.62,-960.66 -308.45,-849.01 -1404.91,-599.51 -1872.8,-599.21 -369.34,0.23 -1410.79,-204.69 -1283.2,330.89 49.68,208.56 287.98,38.27 340,512.44l-0.09 1695.88c-40.62,467.07 -51.22,353.14 -275.45,574.63 -165.42,163.4 -5.18,387.08 296.14,458.12 319.74,75.37 1292.72,153.71 1422.15,-161.05 48.18,-117.16 -1.94,-226.47 -91.05,-296.12 -105.21,-82.23 -146.54,-62.18 -181.2,-232.97 -38.25,-188.42 -76.39,-616.91 12.56,-775.08 583.52,-151.19 411.24,735.34 782.84,1289.71 159.7,238.24 410.62,299.48 745.96,294.68 395.55,-5.65 571.75,-34.4 720.71,-330.16 3.45,5.51 6.42,13.22 8.39,17.62l49.21 111.45c123.12,213.23 785.33,199.53 989.11,176.05 166.28,-19.16 384.5,-64.58 429.08,-238.67 61.79,-241.33 -162.55,-252.04 -295.94,-334.7 -13.01,-138.28 22.94,-276.5 172.37,-297.89 119.03,-17.05 332.89,-5.15 460.5,-4.1 469.42,3.87 648.3,-4.96 617.48,322.47 -177.69,74.93 -350.18,169.51 -233.49,375.38 119.92,211.56 554.78,202.08 862.13,223.29 1362.72,94.03 1204,-466.75 1005.97,-539.6 -254.13,-93.5 -198.68,-38.13 -403.73,-492.88 -90.78,-201.34 -177.58,-397.17 -265.29,-608.75z"/>
   <path class="fil0" d="M8150.5 15802.09c144.94,-49.19 701.85,-132.26 830.81,-10.53 98.02,98.29 36.92,792.84 -66.9,903.85 -29.36,31.4 -361.32,213.03 -171.82,470.12 63.36,85.95 142.29,103.98 235.88,133.29 199.98,62.64 477.13,52.13 707.11,48.95 811.42,-11.21 940.49,-369.43 708.31,-545.49 -158.1,-119.87 -220.65,-58.14 -228.96,-493.17 -4.67,-244.53 -13.66,-500.21 -7.41,-742.96 7.23,-280.59 3.74,-777.44 32.09,-1047.46 36.05,-343.46 237.41,-193.21 307.49,-411.44 113.21,-352.59 -340.08,-436.25 -615.84,-453.79 -379.97,-24.18 -1035.44,-47.41 -1157.11,271.42 -104.05,272.68 152.51,276.5 243.47,436.64 66.5,117.07 82.49,560.01 27.16,686.27 -107.24,89.6 -677.35,53.04 -825.02,19.89 -53.96,-155.67 -70.82,-478.35 -13.34,-657.75 65.34,-203.98 324.6,-171.48 309.62,-436.07 -27.83,-491.7 -1371.95,-367.12 -1693.04,-163.18 -80.58,51.18 -147.34,118.59 -154.24,227.37 -8.97,141.34 55.63,167.45 151.55,229.16 243.69,156.77 194.46,223.19 195.16,556.37 0.66,323.01 35.59,1562.42 -67.43,1798.57 -44.18,101.25 -119.99,113.88 -203.85,168.11 -271.96,175.87 -105.52,576.03 675.98,576.22 336.01,0.08 1071.73,-8.34 1046.98,-424.69 -15.56,-261.71 -215.64,-102.35 -284.21,-461.54 -45.44,-238.07 -30.59,-458.86 17.56,-678.16z"/>
   <path class="fil0" d="M23880.86 15304.07c-136.95,-686.64 382.18,-1009.44 745.06,-590.56 205.56,237.29 410.3,832.5 445.87,1242.35 22.36,257.51 39.92,509.94 -130.08,670.99 -186.57,176.76 -472.48,79.04 -603.98,-98.7 -216.31,-292.38 -373.4,-805.66 -456.87,-1224.08zm247.27 -1528.8c-101.02,41.9 -229.23,41.63 -364.44,101.2 -115.28,50.8 -197.29,86.54 -304,154.31 -196.14,124.58 -349.88,269.68 -483.8,454.87 -577.55,798.67 -396.4,2071.62 405.06,2651.3 673.69,487.29 1614.42,496.44 2285.76,-24.79 1217.28,-945.11 647.56,-2916.11 -686.25,-3296.26 -166.9,-47.56 -682.74,-110.98 -852.33,-40.63z"/>
   <path class="fil0" d="M2889.87 15478.78c0.61,701.58 407.55,1418.64 1000.69,1689.88 313.86,143.52 721.66,281.24 1129.84,196.2 199.54,-41.56 344.12,-87.02 506.4,-169.88 132.8,-67.8 377.37,-110 476.72,-178.08 452.55,-310.14 344.74,-1222.67 -44.5,-873.91 -464.28,415.99 -1189.76,391.28 -1563.22,-202.21 -443.78,-705.26 -244.93,-1873.06 622.8,-1516.82 437.19,179.49 433.78,434.31 627.75,705.8 186.09,260.45 667.3,192.29 750.18,-295.85 55.71,-328.2 -113.85,-840.67 -339.71,-968.16 -201.69,-113.85 -212.14,77.37 -551.65,-78.87 -1321.45,-608.11 -2616.33,507.9 -2615.3,1691.9z"/>
   <path class="fil0" d="M12720.11 15779.55c-57.79,43.91 -105.22,31.6 -194.88,30.6 -344.18,-3.83 -545.11,61.79 -486.51,-136.17 45.26,-152.84 161.18,-500.55 267.65,-599.27 161.26,6.14 215.61,182.62 278.11,301.21 41.89,79.48 182.5,329.1 135.63,403.63zm-1309.18 1569.59c157.39,0.54 367.46,-19.06 491.68,-90.52 148.65,-85.52 185.01,-297.21 52.44,-380.35 -109.77,-68.83 -326.89,-56.16 -182.38,-317.05 77.96,-140.73 298.92,-104.18 468.18,-104.57 159.87,-0.38 587.49,-0.8 694.81,75.74 63.87,45.54 94.3,193.24 28.32,259.51 -0.02,0.02 -441.12,162.52 -170.36,426.77 179.68,175.35 874.32,150.23 1150.74,150.3 279.05,0.07 924.71,-70.86 752.23,-458.11 -43.21,-97.01 -166.3,-75.17 -258.08,-135.72 -117.51,-77.5 -214.87,-396.66 -276.52,-533.65 -247.6,-550.12 -478.35,-1135.65 -757.57,-1665.33 -164.61,-312.26 -382.78,-760.51 -713.75,-898.42 -225.93,-94.14 -453.91,-62.88 -633.13,89.34 -198.23,168.36 -154.78,367.2 -170,642.43 -20.39,368.68 -290.21,904.54 -409.25,1201.13 -86.86,216.39 -384.26,964.79 -517.23,1100.03 -155.59,158.25 -450.14,131.76 -371.4,417.67 71.81,260.75 541.32,219.84 821.27,220.8z"/>
   <path class="fil1" d="M11410.93 17349.14c-279.95,-0.96 -749.46,39.95 -821.27,-220.8 -78.74,-285.91 215.81,-259.42 371.4,-417.67 132.97,-135.24 430.37,-883.64 517.23,-1100.03 119.04,-296.59 388.86,-832.45 409.25,-1201.13 15.22,-275.23 -28.23,-474.07 170,-642.43 179.22,-152.22 407.2,-183.48 633.13,-89.34 330.97,137.91 549.14,586.16 713.75,898.42 279.22,529.68 509.97,1115.21 757.57,1665.33 61.65,136.99 159.01,456.15 276.52,533.65 91.78,60.55 214.87,38.71 258.08,135.72 172.48,387.25 -473.18,458.18 -752.23,458.11 -276.42,-0.07 -971.06,25.05 -1150.74,-150.3 -270.76,-264.25 170.34,-426.75 170.36,-426.77 65.98,-66.27 35.55,-213.97 -28.32,-259.51 -107.32,-76.54 -534.94,-76.12 -694.81,-75.74 -169.26,0.39 -390.22,-36.16 -468.18,104.57 -144.51,260.89 72.61,248.22 182.38,317.05 132.57,83.14 96.21,294.83 -52.44,380.35 -124.22,71.46 -334.29,91.06 -491.68,90.52zm6108.68 -1796.39c116.61,65.64 283.34,133.5 379.43,228.47 293.55,290.18 249.95,766.51 327.85,938.25 80.82,178.17 293.23,61.66 319.5,316.53l26.89 -23.7c242.83,-229.43 323.63,-97.97 462.04,-372.14 104.83,-207.63 179.07,-376.65 273.65,-602.25 180.47,-430.51 366.11,-826.68 502.35,-1269.2 115.62,-375.56 -111.78,-1135.53 708.05,-1069.73 402.43,32.3 705.91,592.66 864,912.72 201.34,407.59 395.73,796.3 565,1204.59 87.71,211.58 174.51,407.41 265.29,608.75 205.05,454.75 149.6,399.38 403.73,492.88 198.03,72.85 356.75,633.63 -1005.97,539.6 -307.35,-21.21 -742.21,-11.73 -862.13,-223.29 -116.69,-205.87 55.8,-300.45 233.49,-375.38 30.82,-327.43 -148.06,-318.6 -617.48,-322.47 -127.61,-1.05 -341.47,-12.95 -460.5,4.1 -149.43,21.39 -185.38,159.61 -172.37,297.89 133.39,82.66 357.73,93.37 295.94,334.7 -44.58,174.09 -262.8,219.51 -429.08,238.67 -203.78,23.48 -865.99,37.18 -989.11,-176.05l-49.21 -111.45c-1.97,-4.4 -4.94,-12.11 -8.39,-17.62 -148.96,295.76 -325.16,324.51 -720.71,330.16 -335.34,4.8 -586.26,-56.44 -745.96,-294.68 -371.6,-554.37 -199.32,-1440.9 -782.84,-1289.71 -88.95,158.17 -50.81,586.66 -12.56,775.08 34.66,170.79 75.99,150.74 181.2,232.97 89.11,69.65 139.23,178.96 91.05,296.12 -129.43,314.76 -1102.41,236.42 -1422.15,161.05 -301.32,-71.04 -461.56,-294.72 -296.14,-458.12 224.23,-221.49 234.83,-107.56 275.45,-574.63l0.09 -1695.88c-52.02,-474.17 -290.32,-303.88 -340,-512.44 -127.59,-535.58 913.86,-330.66 1283.2,-330.89 467.89,-0.3 1564.35,-249.8 1872.8,599.21 109.21,300.6 51.93,725.22 -210.62,960.66 -162.22,145.47 -209.22,49.87 -205.78,247.23zm-9369.11 249.34c-48.15,219.3 -63,440.09 -17.56,678.16 68.57,359.19 268.65,199.83 284.21,461.54 24.75,416.35 -710.97,424.77 -1046.98,424.69 -781.5,-0.19 -947.94,-400.35 -675.98,-576.22 83.86,-54.23 159.67,-66.86 203.85,-168.11 103.02,-236.15 68.09,-1475.56 67.43,-1798.57 -0.7,-333.18 48.53,-399.6 -195.16,-556.37 -95.92,-61.71 -160.52,-87.82 -151.55,-229.16 6.9,-108.78 73.66,-176.19 154.24,-227.37 321.09,-203.94 1665.21,-328.52 1693.04,163.18 14.98,264.59 -244.28,232.09 -309.62,436.07 -57.48,179.4 -40.62,502.08 13.34,657.75 147.67,33.15 717.78,69.71 825.02,-19.89 55.33,-126.26 39.34,-569.2 -27.16,-686.27 -90.96,-160.14 -347.52,-163.96 -243.47,-436.64 121.67,-318.83 777.14,-295.6 1157.11,-271.42 275.76,17.54 729.05,101.2 615.84,453.79 -70.08,218.23 -271.44,67.98 -307.49,411.44 -28.35,270.02 -24.86,766.87 -32.09,1047.46 -6.25,242.75 2.74,498.43 7.41,742.96 8.31,435.03 70.86,373.3 228.96,493.17 232.18,176.06 103.11,534.28 -708.31,545.49 -229.98,3.18 -507.13,13.69 -707.11,-48.95 -93.59,-29.31 -172.52,-47.34 -235.88,-133.29 -189.5,-257.09 142.46,-438.72 171.82,-470.12 103.82,-111.01 164.92,-805.56 66.9,-903.85 -128.96,-121.73 -685.87,-38.66 -830.81,10.53zm2386.84 1008.93c-32.26,-120.8 -162.98,-114.05 -216.82,-198.15 -44.37,-69.33 -67.65,-655.01 -67.28,-784.53 0.49,-170.14 22.56,-268 22.76,-414.33 0.43,-304.68 15.15,-545.6 20.03,-831.73 5.82,-341.61 328.66,-202.53 328.66,-610.45 0,-93.71 -65.35,-176.19 -119.12,-230.32 -65.34,-65.75 -144.91,-96.27 -243.77,-127.51 -338.89,-107.08 -1646.38,-209.43 -1646.38,379.67 0,192.69 78.37,241 203.77,342.23 62.12,50.15 42.86,21.74 76.08,98.64 41.34,95.72 24.35,198.28 25.49,324.58 2.9,322.33 49.74,239.19 -567.42,239.19 -58.99,0 -60.22,-10.43 -109.2,-21.85 0,-138.64 -51.92,-427.35 36.98,-574.53 85.99,-142.37 290.62,-142.49 290.62,-430.1 0,-177.63 -104.28,-275.13 -231.75,-336.09 -375.46,-179.55 -1309.67,-125.78 -1640.05,102.28 -112.78,77.85 -181.16,154.48 -181.16,321.17 0,167.91 70.38,199.61 173.31,263.49 16.74,10.38 112.22,76.9 126.08,92.32 38.46,42.75 50.06,94.5 50.06,168.35 0,248.58 49.95,1859.12 -73.86,2022.77 -3.69,4.88 -567.49,276.06 -205.89,637.52 313.1,312.98 1463.31,280.61 1795.42,12.89 147.39,-118.82 192.52,-331.47 86.89,-497.44 -177.45,-278.78 -248.49,116.07 -248.49,-821.67 0,-106.13 136.53,-83.4 239.76,-87.84 90.93,-3.91 480.96,-98.52 480.96,87.84 0,196.7 -26.02,446.94 -69.89,607.15 -46.25,168.94 -279.55,193.8 -279.55,419.33 0,480.19 505.83,446.57 849.31,484.42 253.05,27.88 597.83,-3.67 851.82,-93.68 101.44,-35.95 130.01,-80.63 220.79,-128.66 127.6,93.49 58.75,143.37 364.62,203.21 296.33,57.97 967.72,79.67 1180.65,-164.89 175.15,-201.17 72.51,-516.88 -213.04,-540.64 5.59,-250.91 262,-174.72 567.84,-174.72 137.23,0 195.86,13.02 307.13,20.47 143.7,9.63 173.34,-0.11 173.34,154.25 -352.24,29.31 -426.27,538.55 62.26,680.29 279.23,81.02 711.65,62.27 1029.74,62.27 304.33,0 645.05,-62.02 764.4,-240.24 434.03,290.65 723.65,240.24 1244.88,240.24 210.6,0 496.43,-36.93 616.23,-191.85 220.63,-285.33 -46.19,-453.09 -163.84,-566.31 -102.45,-98.61 -81.12,-595.72 -81.12,-770.64 131.55,0 203.93,32.45 261.6,153.36 31.87,66.82 52.35,187.3 71.43,278.01 63.68,302.6 178.23,785.4 439.91,979.69 259.92,192.99 513.86,183.26 843.21,183.26 233.68,0 451.71,-77.59 546,-218.4 237.95,159.33 331.06,196.56 677.04,196.56 358.82,0 939.12,10.79 939.12,-436.8 0,-149.29 -169.06,-272.55 -305.76,-283.92 3.75,-168.34 117.02,-174.72 262.08,-174.72 237.4,0 444.4,7.53 675.13,45.58 89.25,14.72 124.77,30.91 132.95,129.14 -110,25.63 -197.07,67.74 -254.03,160.93 -174.47,285.37 135.39,512.31 393.54,551.3 372.14,56.22 1114.84,116.93 1490.23,-21.6 114.85,-42.39 123.77,-49.86 200.22,-127.38 168.73,-171.08 135.6,-439.21 -89.49,-534.69 -214.75,-91.07 -186.45,-74.52 -370.83,-502.77 -71.45,-165.94 -131.67,-305.7 -202.53,-474.51 -27.02,-64.36 -29.27,-66.58 -56.21,-118.5 -139.15,-268.16 -230.33,-567.09 -372.85,-828.35 -218.95,-401.4 -448.82,-1007.91 -876.03,-1220.6 -372.43,-185.42 -776.94,-50.1 -933.22,254.1 -120.52,234.57 -26.41,350.8 -76.1,622.78 -31.71,173.57 -103.82,401.81 -159.48,539.4l-169.01 398.83c-154.63,343.68 -276.15,720.36 -452.93,1054.02 -135.87,256.42 -187.44,179.38 -386.31,312.56 -101.62,-151.74 -249.17,-37.28 -297.12,-270.72 -17.85,-86.87 -21,-163.28 -33.58,-250.34 -31.1,-215.15 -126.34,-446.94 -264.89,-608.71 -37.04,-43.25 -105.17,-94.04 -156.22,-127.7 -75.74,-49.93 -134.57,-60.82 -209.15,-96.61 42.01,-57.34 122.56,-82 184.05,-143.54 361.54,-361.9 354.43,-1015.21 14.24,-1386.99 -252.77,-276.27 -658.55,-369.54 -1028.21,-369.54 -321.26,0 -573.53,43.68 -895.44,43.68 -343.09,0 -731.05,-117.76 -1048.05,43.94 -52.67,26.86 -96,58.84 -128.22,112.03 -130.41,215.27 -57.68,389.69 143.6,505.42 128.13,73.69 159.08,195.8 159.08,386.92 0,442.23 41.08,1390.27 -36.52,1798.04 -29.21,153.43 -126.82,217.86 -247.4,298.6 -353.5,-236.72 -193.43,132 -564.73,-767.5l-415.05 -939.04c-140.41,-344.25 -487.98,-1038.68 -739.69,-1291.42 -114.59,-115.06 -264.79,-214.82 -427.14,-250.18 -382.67,-83.36 -751.29,152.9 -796.99,479.25 -13.61,97.13 -9.92,226.27 -20.37,307.23 -25.87,200.17 -50.11,373.53 -118.83,558.22 -30.61,82.25 -58.53,163.2 -96.37,253.07 -69.6,165.32 -136.21,314.85 -205.45,471.58 -135.3,306.22 -248.19,642.41 -415.85,938.22 -71.94,126.9 -260.23,249.56 -414.63,262.41z"/>
   <path class="fil1" d="M2889.87 15478.78c-1.03,-1184 1293.85,-2300.01 2615.3,-1691.9 339.51,156.24 349.96,-34.98 551.65,78.87 225.86,127.49 395.42,639.96 339.71,968.16 -82.88,488.14 -564.09,556.3 -750.18,295.85 -193.97,-271.49 -190.56,-526.31 -627.75,-705.8 -867.73,-356.24 -1066.58,811.56 -622.8,1516.82 373.46,593.49 1098.94,618.2 1563.22,202.21 389.24,-348.76 497.05,563.77 44.5,873.91 -99.35,68.08 -343.92,110.28 -476.72,178.08 -162.28,82.86 -306.86,128.32 -506.4,169.88 -408.18,85.04 -815.98,-52.68 -1129.84,-196.2 -593.14,-271.24 -1000.08,-988.3 -1000.69,-1689.88zm-105.71 -87.36c0,331.24 -11.14,286.67 69.91,607.14 278.62,1101.8 1512.02,1772.46 2491.94,1386.89 87.68,-34.5 147.16,-60.12 229.31,-98.32 69.47,-32.29 172.5,-78.38 250.59,-98.82 229.37,-60.06 290.96,-96.9 405.34,-271.71 423.96,-647.98 14.56,-1184.01 -318.86,-864.86 -453.37,433.97 -1322.95,367.36 -1563.91,-477.44 -78.44,-275.02 -127.28,-716.91 59.74,-961.21 174.95,-228.54 705.61,-211.82 974.17,254.89 197.69,343.55 211.72,501.6 634.08,501.6 51.66,0 167.03,-50.19 209.87,-74.05 70.05,-39 104.15,-69.19 149.03,-134.88 386.14,-565.15 -84.15,-1429.06 -380.74,-1429.06 -143.59,0 -255.57,34.27 -333.91,7.8 -40.04,-13.52 -74.38,-34.76 -121.65,-54.56 -794.65,-332.79 -1562.81,-179.47 -2174.1,431.01l-84.16 90.56c-43.34,45.87 -70.42,83.5 -106.96,133.28 -197.49,269.12 -389.69,715.82 -389.69,1051.74z"/>
   <path class="fil1" d="M18618.11 19890.45l7.78 220.27c17.01,196.3 -88.33,172.85 341.65,172.85 0,-334.39 -21.84,-628.94 -21.84,-982.8 25.1,28.88 8.25,1.12 34.45,52.91l121.37 337.27c18.51,48.92 42.87,87.51 62.32,134.24 18.24,43.84 26.57,85.15 44.71,130.01l78.49 205.43c66.45,167.19 0.17,144.77 313.86,144.77 112.53,0 43.68,-113.08 43.68,-218.39l0 -1703.52 -327.6 0 0 808.08c0,75.3 16.15,84.57 21.84,152.88l-414.96 -960.96c-134.03,0 -206.71,-19.63 -305.75,-21.84l0 1528.8z"/>
   <path class="fil1" d="M17897.39 19147.89c-122,0 -87.36,-36.54 -87.36,-393.12 263.29,0 283.92,8.82 283.92,262.08 0,87.94 -96.92,131.04 -196.56,131.04zm-349.44 1135.68c367.22,0 289.63,95.99 260.68,-589.8 -18.01,-426.24 156.64,-69.83 241.64,240.36 24.74,90.3 73.38,274.8 109.2,349.44l371.27 0c-30.41,-130.58 -143.51,-554.29 -199.93,-673.66 -40.51,-85.7 -80.79,-108.1 -127.66,-178.1 321.29,-170.01 273.41,-718.63 131.5,-939.58 -116.55,-181.45 -604.33,-130.58 -874.07,-130.58l-0.86 743.43c1.45,117.74 20.13,128.69 23.42,238.66l-1.46 744.03c-1.61,97.23 -25.8,195.8 66.27,195.8z"/>
   <path class="fil1" d="M12786.84 18776.61c133.27,0 202.89,3.87 244.65,104.8 73.87,178.51 147.4,921.68 -135.45,921.68l-109.2 0 0 -1026.48zm-349.43 -393.12l0 1856.4c654.2,0 1004.63,128.5 1004.63,-1004.64 0,-313.62 -75.49,-763.42 -348,-875.04 -107.7,-44.11 -329.96,-7.28 -481.52,-22.3 -78.06,-7.74 -175.11,-61.91 -175.11,45.58z"/>
   <path class="fil1" d="M19841.14 19060.53c0,21.02 6.54,43.99 6.72,45.5 6.13,50.19 -0.96,-10.86 4.81,43l10.23 894.38c-1.93,327.91 -36.24,258.26 284.84,261.16l545.16 22.67c121.98,0 87.36,-36.54 87.36,-393.11 0,-115.39 -247.31,-65.52 -567.84,-65.52l0 -371.28 371.27 0c144.75,0 131.04,128.03 131.04,-327.6 0,-70.12 -75.48,-65.51 -262.08,-65.51l-240.23 0 0 -283.93 524.15 0 0 -414.96 -895.43 -21.84 0 677.04z"/>
   <path class="fil1" d="M13594.92 20196.21c0,50.32 15.2,65.52 65.53,65.52l786.23 0c106.02,0 65.52,-158.91 65.52,-436.8l-589.68 -21.84c0,-142.79 21.84,-212.02 21.84,-371.28l502.32 0 0 -371.28 -502.32 0c-15.22,-71.89 0,-98.4 0,-218.39 0,-81.92 -103.95,-89.81 240.17,-87.44 350.18,2.43 305.83,67.83 305.83,-349.37 0,-50.32 -15.2,-65.52 -65.52,-65.52l-829.92 0 0 1856.4z"/>
   <path class="fil1" d="M20911.3 18798.45c0,182.87 -17.89,305.96 76.35,469.65 45.41,78.85 102.48,122.96 171.32,178.11l49.92 37.44c4.05,2.51 9.54,5.75 13.72,8.12l143.58 74.82c142.86,84.53 156.62,80.24 156.62,258.34 0,54.41 -3.93,64.04 -32.28,98.76 -192.5,235.71 -295.11,-273.07 -295.31,-273.48 -79.15,0 -122.39,11 -180.12,17.02 -98.85,10.3 -120.63,-19.29 -135.33,43.72 -10.17,43.65 50.24,352.14 125.04,457.27 192.41,270.44 675.46,334.21 821.92,-192.25 60.01,-215.69 56.26,-317.56 -6.37,-535.95 -55.41,-193.21 -195.08,-292.49 -372.22,-370.33 -187.89,-82.59 -209.25,-68.94 -209.25,-227.55 0,-61.69 50.12,-84.27 87.37,-109.21 180.55,48.21 129.86,168.61 174.71,262.08l305.33 -26.23c5.12,-711.58 -592.97,-663.66 -770.22,-460.5 -41.45,47.5 -124.78,215.07 -124.78,290.17z"/>
   <path class="fil0" d="M20069.47 13153.33c275.79,-64.97 917.22,632.47 1292.56,177.44 152.57,-184.96 179.96,-477.4 33.75,-652.31 -108.85,-130.19 -382.61,-132.03 -449.57,18.34 -33.69,75.68 -2.65,107.63 -34.91,182.37 -296.24,52.95 -827.69,-499.63 -1205.96,-221.63 -265.02,194.78 -206.74,721.93 53.29,784.11 170.04,40.67 199.75,-20.99 299.16,-78.68l11.68 -209.64z"/>
   <path class="fil1" d="M11236.21 18885.81c87.27,63.95 43.85,165.04 82.62,332.34 77.23,333.2 62.1,301.02 -104.46,301.02 -134.91,0 21.84,-288.67 21.84,-633.36zm-567.83 1354.08l371.27 0c0,-162.4 33.55,-183.98 43.68,-305.76l349.44 0c10.13,121.78 43.68,143.36 43.68,305.76l371.28 0c-2.57,-115.37 -66.01,-374.81 -95.97,-493.71 -21.49,-85.28 -40.46,-151.55 -53.87,-230.05l-152.85 -742.6c-89.87,-543.95 -66.36,-455.55 -396.19,-455.55 -116.15,0 -111.2,235.72 -158.38,431.3 -36.29,150.51 -76.04,341.18 -103.47,508.04 -25,152.06 -71.9,335.74 -109.8,479.88 -41.91,159.48 -71.08,340.69 -108.82,502.69z"/>
   <path class="fil1" d="M9008.54 18885.81l109.19 633.36 -218.39 0 109.2 -633.36zm-524.16 1375.92c258.84,0 315.99,74.44 349.44,-327.6l371.28 0 26.22 305.31 366.9 0.45 -347.97 -1683.15c-50.44,-248.73 53.81,-216.93 -372.75,-216.93 -67.36,0 -54.3,25.08 -69.8,83.09l-292.04 1389.63c-51.22,233.5 -150.25,449.2 -31.28,449.2z"/>
   <path class="fil1" d="M9685.58 18842.14c0,695.99 611.51,523.81 611.51,851.75 0,90.94 -38.58,196.56 -131.04,196.56 -182.23,0 -149.31,-155.09 -191.91,-268.16 -28.19,-74.84 -21.9,-47.95 -134.91,-40.54 -131.47,8.63 -105.83,-1.8 -197.34,46.62 3.06,136.76 63.25,319.85 111.54,434.47 118.94,282.26 560.62,275.97 722.58,72.04 190.87,-240.33 246.19,-795.2 -75.62,-1046.6 -194.4,-151.88 -387.21,-99.13 -387.21,-289.83 0,-131.92 59.22,-131.04 131.04,-131.04 103.07,0 96.25,167.76 131.04,240.24l305.75 -21.84c0,-167.02 -15.76,-280.44 -89.96,-412.34 -160.5,-285.26 -805.47,-277.44 -805.47,368.67z"/>
   <path class="fil1" d="M16761.71 18973.18l43.68 0c2.13,95.68 34.2,287.66 57.44,380.15 59.77,238 46.94,165.84 -188.48,165.84 32.84,-68.44 87.36,-432.46 87.36,-545.99zm-546 1288.55l349.44 0c16.76,-71.9 37.24,-228.42 43.68,-305.76l371.28 0c0,115.12 35.12,202.88 43.68,305.76l349.04 26.35 -392.72 -1926.43 -393.12 0 -278.07 1425.45c-31.37,170.16 -56.46,316.9 -93.21,474.63z"/>
   <path class="fil1" d="M7326.86 19104.22c0,338.94 -26.26,579.9 119.9,884.73 187.87,391.82 583.59,376.27 767.11,133.31 67.58,-89.46 161.31,-323.55 161.31,-472.05 0,-85.35 14.07,-19.79 -135.02,-105.22 -65.9,-37.78 -77.7,-61.75 -170.73,-69.5 0,450.94 -393.12,589.89 -393.12,-109.2 0,-807.11 286.64,-627.14 343.68,-518.4 37.29,71.1 17.2,101.79 49.44,168.96 88.49,-7.36 86.93,-26.13 162.42,-55.97 47.78,-18.89 143.33,-32.48 143.33,-75.07 0,-113.2 -123.45,-362.11 -176.7,-434.81 -87.48,-119.44 -253,-161.93 -431.56,-131.27 -108.13,18.57 -211.15,101.72 -268.15,191.99 -94.92,150.33 -171.91,391.73 -171.91,592.5z"/>
   <path class="fil1" d="M24128.13 13775.27c169.59,-70.35 685.43,-6.93 852.33,40.63 1333.81,380.15 1903.53,2351.15 686.25,3296.26 -671.34,521.23 -1612.07,512.08 -2285.76,24.79 -801.46,-579.68 -982.61,-1852.63 -405.06,-2651.3 133.92,-185.19 287.66,-330.29 483.8,-454.87 106.71,-67.77 188.72,-103.51 304,-154.31 135.21,-59.57 263.42,-59.3 364.44,-101.2zm-1578.84 1616.15c0,674.61 53.89,975.67 458.73,1506.86l77.06 97.67c292.47,351.25 878.07,601.31 1342.44,601.31 510.83,0 783.03,-66.24 1183.69,-323.28 228.59,-146.66 243.6,-175.66 414.25,-371.98l50.38 -58.82c445.78,-545.77 449.24,-1383.48 172.12,-2005.48 -53.7,-120.55 -98.93,-206.73 -169.2,-311.28l-156.58 -214.7c-32.43,-35.56 -29.63,-35.67 -59.89,-71.14 -75.36,-88.33 -166.71,-157.33 -255.15,-225.33 -113.09,-86.95 -174.31,-119.07 -313.25,-189.06 -122.25,-61.59 -233.28,-103.94 -369.87,-132.46 -619.33,-129.32 -1341.28,19.79 -1787.58,450.29l-212.99 245.64c-188.7,252.61 -199.75,335.44 -302.89,614.39l-71.27 387.37z"/>
   <path class="fil1" d="M15123.71 19191.57c0,374.25 26.96,1014.81 442.03,1087.07 111.9,19.48 167.87,27.32 249.48,-0.71 77.27,-26.55 147.82,-77.06 191.99,-137.35 73.11,-99.85 152.41,-341.26 164.82,-490.37l-283.91 -174.72c-79.33,165.31 -19.75,371.28 -240.25,371.28 -171.25,0 -191.73,-408.08 -197.54,-546.77 -2.77,-66.44 27.62,-287.43 38.51,-332.98 15.06,-62.95 25.37,-91.28 61.98,-134.58 46.01,-54.41 60.72,-46.89 118.89,-77.67 101.55,53.74 171.32,109.52 174.73,262.08 130.93,-2.91 187.11,-59.72 305.76,-87.36 -4.9,-219.62 -150.94,-611.51 -480.49,-611.51 -442.79,0 -546,495.54 -546,873.59z"/>
   <path class="fil1" d="M185.21 18711.1c173.83,237.25 730.03,240.23 1026.48,240.23 198.17,0 387.87,-104.96 587.9,-132.81 101.58,-14.14 224.9,-16.29 338.72,-32.56 549.57,-78.55 3225.06,-57.22 4009.49,-52.74 152.89,0.87 207.42,-21.9 349.16,-22.12 157.24,-0.24 204.1,-33.41 327.59,-43.69 -69,-94.17 -617.4,-87.35 -786.24,-87.35 -533.61,0 -1020.22,29.8 -1529.45,43.03 -124.38,3.23 -214.54,22.86 -370.6,22.51l-1157.54 21.81c-398,0 -879.11,20.38 -1250.61,-59.77 -510.56,-110.18 -200.49,-114.95 -846.02,-114.95 -396.74,0 -533.36,174.2 -698.88,218.41z"/>
   <path class="fil1" d="M23881.52 18732.93c-368.63,0 -1682.54,-27.35 -1987.43,43.68l0 43.68c160.85,3.59 317,43.68 546,43.68l1834.55 0c756.97,0 1948.33,-110.65 2579.65,19.31 365.28,75.2 652.64,193.8 1046.8,90.91 145.26,-37.91 354.62,-100.9 392.1,-241.26 -50.59,-69.06 -130.91,-74.55 -218.23,-109.37 -456.25,-181.94 -965.38,43.62 -1306.36,91.73 -225.1,31.75 -473.84,10.05 -703.8,16.93 -109.96,3.29 -120.91,21.96 -238.65,23.42 -665.58,8.23 -1271.71,-22.71 -1944.63,-22.71z"/>
   <path class="fil1" d="M20069.47 13153.33l-11.68 209.64c-99.41,57.69 -129.12,119.35 -299.16,78.68 -260.03,-62.18 -318.31,-589.33 -53.29,-784.11 378.27,-278 909.72,274.58 1205.96,221.63 32.26,-74.74 1.22,-106.69 34.91,-182.37 66.96,-150.37 340.72,-148.53 449.57,-18.34 146.21,174.91 118.82,467.35 -33.75,652.31 -375.34,455.03 -1016.77,-242.41 -1292.56,-177.44zm-228.33 403.54c70.75,0 176.93,-44.24 228.86,-76.89 91.59,-57.58 98.74,-91.82 98.74,-228.87 238,55.45 868.9,637.92 1294.34,114.99 282.76,-347.54 118.55,-879.39 -246.02,-879.39 -195.27,0 -370.21,8.66 -393.12,283.92 -246.31,-20.49 -363.53,-283.92 -895.44,-283.92 -543.02,0 -572.14,668.24 -406.94,887.42l86.37 88.35c61.88,51.7 148.81,94.39 233.21,94.39z"/>
   <path class="fil1" d="M23968.89 15041.99c0,-104.37 36.65,-215.33 81.65,-289.63 122.74,-202.63 347.28,-150.71 466.34,-18.13 54.89,61.13 115.43,135.54 158.09,213.19 83.39,151.8 162.84,337.13 209.28,511.44 44.62,167.44 297.39,1155.6 -150.96,1155.6 -296.5,0 -390.38,-257.31 -515.11,-533.22 -24.96,-55.22 -32.3,-65.77 -48.7,-104.18 -91.64,-214.61 -200.59,-691.33 -200.59,-935.07zm-88.03 262.08c83.47,418.42 240.56,931.7 456.87,1224.08 131.5,177.74 417.41,275.46 603.98,98.7 170,-161.05 152.44,-413.48 130.08,-670.99 -35.57,-409.85 -240.31,-1005.06 -445.87,-1242.35 -362.88,-418.88 -882.01,-96.08 -745.06,590.56z"/>
   <path class="fil1" d="M2216.32 17815.65c-148.11,0 -191.41,8.95 56.4,271.21l65.29 65.74c343.09,323.34 1178.47,550.68 1021.28,315.99 -147.2,-219.78 -453.53,-460.04 -711.95,-559.8 -85.51,-33.01 -325.27,-93.14 -431.02,-93.14z"/>
   <path class="fil1" d="M4181.91 18536.37c-16.83,-202.3 -571.39,-610.15 -829.47,-677.47 -428.69,-111.83 -482.57,-93.75 -363.29,100.83 87.15,142.19 258.16,284.59 399.24,365.53 249.98,143.41 406.72,211.11 793.52,211.11z"/>
   <path class="fil1" d="M2565.76 18580.06c-5.87,-263.37 -491.21,-576.19 -771.97,-669.47 -72.47,-24.08 -121.21,-34.37 -190.96,-49.27 -300.59,-64.24 -346.75,-91.51 -227.06,72.65 42.05,57.68 56.99,103.57 104.02,159.58 82.66,98.41 479.17,378.07 624,424.31 117.4,37.47 299.57,62.2 461.97,62.2z"/>
   <path class="fil1" d="M3832.48 19584.69c321.21,0 491.32,-87.71 729.66,-253.14 130.19,-90.36 303.58,-258.31 391.91,-394.32 44.11,-67.92 27.19,10.05 35.94,-95.09 -409.34,0 -633.91,59.56 -958.79,373.44 -59.78,57.75 -371.79,369.11 -198.72,369.11z"/>
   <path class="fil1" d="M5011.83 18536.37c-5.74,-69.08 12.19,-41.66 -83.93,-156.3 -31.24,-37.26 -87.92,-106.9 -122.8,-139.28 -269.16,-249.94 -690.65,-436.26 -1081.82,-468.81 4.37,196.15 329.21,435.07 492.76,533.72 233.84,141.04 430.81,230.67 795.79,230.67z"/>
   <path class="fil1" d="M5798.07 18514.53c-14.85,-178.46 -343.77,-411.51 -493.33,-511.31 -159,-106.1 -515.43,-231.24 -773.38,-231.24 9.51,114.38 68.62,154.63 133.74,237.53 30.02,38.22 18.79,34.57 57.68,73.36 33.78,33.69 29.07,23.26 61.15,48.05 37.32,28.85 38.04,32.83 69.95,61.09 54.46,48.24 95.82,69.11 156.49,105.59 251.04,150.96 470.28,216.93 787.7,216.93z"/>
   <path class="fil1" d="M4640.56 19584.69c325.8,0 642.87,-173.72 849.59,-373.44 3.22,-3.12 7.88,-7.61 11.05,-10.8 102.89,-103.5 270.05,-257.9 296.87,-358.31 -89.74,-7.48 -48.78,-21.85 -131.04,-21.85 -355.35,0 -488.09,145.84 -698.9,283.9l-386.15 382.24c-23,50 -22.1,98.26 58.58,98.26z"/>
   <path class="fil1" d="M4181.91 18842.14c-166.44,0 -307.58,25.85 -434.88,67.43 -223.11,72.87 -443.4,245.38 -611.53,414.94 -44.56,44.95 -203.43,238.17 -160.17,281.44 27.57,27.57 -13.37,16.15 71.15,6.37 53.07,-6.13 82.82,-14.78 113.89,-22.32 79.77,-19.39 123.28,-36.99 200.12,-62.34 83.33,-27.49 110.64,-41.92 170.63,-69.61 231.35,-106.8 425.18,-223.5 572.85,-431.78 45.28,-63.87 75.76,-85.66 77.94,-184.13z"/>
   <path class="fil1" d="M1430.08 19606.53c302.72,0 390.58,-9.14 657.42,-216.18l252.33 -206.31c4.47,-4.51 16.88,-17.83 21.23,-22.46l188.82 -252.44c31.11,-82.69 -15.57,-52.28 -113.48,-47.33 -398.04,20.12 -403.76,104.18 -671.84,271.12l-303.7 264.15c-26.69,35.16 -181.26,209.45 -30.78,209.45z"/>
   <path class="fil1" d="M23706.81 18973.18c6.72,80.77 37.79,103.2 80.68,159.55l125.43 136.65c177.87,149.18 406.59,273.54 626.51,356.28l390.41 68.23c-7.2,-86.65 -60.5,-157.34 -111.47,-216.13l-281.31 -264.68c-196.14,-151.71 -579.92,-337.08 -830.25,-239.9z"/>
   <path class="fil1" d="M3308.32 18863.97c-333.57,0 -548.4,99.17 -791.47,300.53 -97.97,81.16 -301.08,252.57 -348.04,378.23 -86.59,231.77 642.33,-91.02 787.19,-201.16 181.48,-137.97 110.36,-85.79 248.64,-231.83 64.36,-67.97 238.86,-245.77 103.68,-245.77z"/>
   <path class="fil1" d="M24514.88 18995.01c43.2,185.41 317.44,375.63 465.82,473.3 210.54,138.61 395.25,203.74 735.38,203.74 -24.64,-296.1 -849.09,-845.99 -1201.2,-677.04z"/>
   <path class="fil1" d="M25301.12 18645.57c421.5,0 662.34,-163.66 986.88,-432.72 49.28,-40.86 67.55,-83.45 101.43,-138.81 37.73,-61.68 61.93,-83.56 69.2,-171.02 -468.43,0 -683.32,182.01 -986.58,433.01 -64.87,53.7 -162.25,205.19 -170.93,309.54z"/>
   <path class="fil1" d="M24121.76 19693.89c-9.36,-112.53 -104.03,-225.98 -179.32,-301.16 -156.55,-156.33 -399.24,-299.38 -609.52,-373.28 -57.08,-20.06 -374.52,-88.91 -411.86,-51.57 -28.71,28.71 -46.6,-13.95 64.58,136.41 58.82,79.56 148.41,191.52 231.19,249.66l221.83 149.45c29.06,18.68 51.56,28.37 85.74,45.3 192.15,95.18 358.3,145.19 597.36,145.19z"/>
   <path class="fil1" d="M26087.36 18929.49c2.6,116.75 105.41,225.19 187.07,293.42 158.64,132.55 355.11,304.71 585.87,375.08 377.15,115.02 576.8,129.66 248.41,-226.58 -226.28,-245.49 -635.75,-441.92 -1021.35,-441.92z"/>
   <path class="fil1" d="M25279.28 18951.33c39.15,146.6 354.73,416.42 487.04,495.76 271.08,162.55 328.12,224.96 757.84,224.96 -21.89,-81.95 -207.31,-284.55 -268.09,-343.43l-47.23 -40.13c-4.88,-4.09 -19.01,-15.69 -23.9,-19.78 -194.02,-162.07 -426.79,-291.43 -689.27,-316.39 -114.97,-10.93 -128.16,-10.22 -216.39,-0.99z"/>
   <path class="fil1" d="M22920.57 18645.57c439.21,0 678.66,-125.66 977.55,-420.2 62.31,-61.4 171.51,-198.9 179.97,-300.51 -317.67,0 -831.76,233.87 -1040.04,466.91 -54.92,61.46 -109.54,158.4 -117.48,253.8z"/>
   <path class="fil1" d="M24558.56 18645.57c420.04,0 846.94,-269.83 1036.81,-579.34l24.22 -41.3c54.89,-90.63 44.91,-26.9 52.81,-121.91 -285.6,23.76 -566.04,102.57 -743.32,239.48l-259.67 242.64c-20.33,23.98 -28.07,33.05 -50.48,58.73 -12.77,14.63 -16.52,19.19 -30.58,35.09l-31.62 35.26c-28.84,32.92 -126.93,131.35 1.83,131.35z"/>
   <path class="fil1" d="M26087.36 18623.73c328.16,76.44 531.06,-45.99 772.68,-253.79 121.09,-104.15 267.58,-240.42 349.68,-376.07 137.29,-226.84 -510.29,-4.59 -702.49,154.3l-338.66 316.54c-60.89,58.05 -78.81,51.22 -81.21,159.02z"/>
   <path class="fil1" d="M23706.81 18667.41c108.51,-9.03 288.44,-41.04 389.54,-69.1 189.8,-52.68 455.55,-239.37 588.66,-372.3 49.04,-48.97 184.69,-217.67 201.15,-279.32 -102.16,-2.27 -96.39,-29.65 -209.12,-14.3 -205.53,27.97 -357.79,91.19 -515.1,207.36 -108.72,80.29 -158.65,133.61 -253.31,227.18 -68.86,68.06 -193.61,201.74 -201.82,300.48z"/>
   <path class="fil1" d="M16477.79 15151.19l-131.04 0c0,-239.75 -5.54,-574.96 43.69,-786.24 300.76,25.03 262.07,230.64 262.07,524.16 0,136.6 -87.03,262.08 -174.72,262.08zm-154.93 -851.76c-117.46,86.78 -82.72,506.32 -86.16,677.08 -2.17,107.59 -33.53,266.03 74.77,292.54 502.11,122.92 553.91,-716.36 318.71,-926.3 -64.15,-57.25 -221.41,-106.79 -307.32,-43.32z"/>
   <path class="fil1" d="M12328.21 15194.86c87.05,23.25 104.21,82.44 170.69,222.43 41.56,87.53 110.88,196.24 113.23,301.73l-327.6 -21.83c-96.05,0 -179.25,110.81 -68.78,-177.83 23.1,-60.36 31.28,-98.43 56.2,-162.36 25.73,-66.04 39.83,-91.65 56.26,-162.14zm391.9 584.69c46.87,-74.53 -93.74,-324.15 -135.63,-403.63 -62.5,-118.59 -116.85,-295.07 -278.11,-301.21 -106.47,98.72 -222.39,446.43 -267.65,599.27 -58.6,197.96 142.33,132.34 486.51,136.17 89.66,1 137.09,13.31 194.88,-30.6z"/>
   <path class="fil1" d="M20321.61 15238.54c77.82,52.11 280.71,438.45 305.77,546l-480.48 0c3.02,-135.81 140.98,-401.19 174.71,-546zm-299.07 589.69c115.91,105.68 679.72,46.38 683.04,43.67 107.85,-87.93 -275.06,-679.15 -317.51,-702.32 -150,-81.85 -202.1,169.64 -232.18,254.3 -39.23,110.36 -122.25,303.53 -133.35,404.35z"/>
  </g>
  <g id="_3023641913328">
   <path class="fil2 str0" d="M9969.5 7205.19c0,822.01 194.75,589.51 218.39,873.6 -485.94,-10.82 -379.27,-834.8 -331.36,-1139.44 24.79,-157.58 19.83,-214.64 200.32,-214.64 -3.58,160.77 -87.35,309.3 -87.35,480.48zm-349.44 -4367.98c61.38,83.77 121.51,21.84 262.08,21.84 262.03,0 537.02,-22.51 689.52,227.75 31.2,51.22 19.7,-26.99 31.19,78.01 -259.47,0 -487.44,-15.73 -691.87,50.67 -231.02,75.04 -465.82,367.99 -248.97,302.59 191.91,-57.88 157.67,-187.17 504.21,-245.39 170.38,-28.63 455.39,47.26 633.2,88.68 -36.46,100.69 -159.77,118.93 -252.29,140.85 -293.98,69.65 -288.51,304.86 -132.69,221.62 269.31,-143.88 225.43,-165.9 581.53,-165.9 -2.06,92.66 -22.67,269.48 -69.48,323.63 -211.15,244.24 -1011.33,-33.55 -1299.41,-177.78 -74.19,-37.13 -135.15,-66.05 -202.35,-103.41 -256.49,-142.6 -832.52,-386.08 -322.48,-691.29 658.51,-394.05 1776.71,-406.42 1806.36,-50.03 -311.97,0 -583.93,-212.83 -1061.07,-100.11 -109.09,25.77 -120.46,69.36 -227.48,78.27zm6813.94 1921.91l-7.07 25.84c38.91,-74.14 71.41,-65.98 110.76,-98.89l173.32 -258.28c108.72,-173.05 338.79,-552.5 490.05,-673.31l-13.79 -225.98c38.79,32.43 24.2,9.74 49.33,58.29 52.23,100.91 51.65,258.37 20.18,352.47 -32.71,97.81 7.91,36.26 -26.26,125.44 -24.03,62.74 -101.6,151.97 -146.7,208.01 -112.09,139.24 -183.74,172.42 -103.71,158.92 87.38,-2.16 293.68,-326.55 317.75,-403.08 77.27,-245.66 -12.99,-433.66 -80.27,-620.75 -32.46,-90.26 -63.72,-172.52 -94.09,-277.18 -371.01,-1278.43 -639.57,-808.75 -941.62,-891.51 -66.58,-18.24 -47,-33.45 -113.46,-62.67 -60.05,-26.41 -78.76,-17.97 -144.25,-52.34 -203.94,-107.02 -376.17,-262.03 -545.2,-415.74 -16.46,-14.96 -32.95,-28.27 -46.04,-41.32l-312.91 -364.13c-145.43,-156.44 -297.56,-388.91 -551.88,-409.37 -149.43,-12.03 -215.4,20.99 -348.19,22.62 -569.02,7.03 -632.25,-39.7 -1092.9,-66.64 -404.88,-23.68 -901.04,100.7 -1163.04,365.97 -309.19,313.05 -851.37,891.3 -955.4,1337.8 -115.1,-2.56 -212.18,-43.09 -307.19,-64.08 -354.66,-78.36 -671.12,-118.05 -1012.1,-32.18 -270.72,68.17 -556.61,205.67 -717.14,440.38 -307.67,449.86 276.04,702.27 519.84,866.71l171.6 90.47c4.77,2.03 10.37,4.7 15.04,6.81 28.2,12.81 27.17,17.59 73.66,35.55 239.27,92.38 472.49,178.9 729.4,231.54 79.14,16.22 68.25,28.46 150.92,47.08l332.29 15.71c0,219.61 -180.87,728.68 -231.32,991.72 -158.59,826.89 -689.87,681.18 -1019.84,1731.98 -18,57.33 -40.08,189.68 -50.9,254.87 -25.13,151.43 -41.31,420.61 100.86,515.82 -25.78,69.12 47.43,31.33 -65.51,43.68 0,291.46 295.32,512.72 511.35,602.48l253.97 95.47c364.38,186.34 164.42,179.66 670.37,312.43 508.16,133.35 679.8,724.41 811.44,1176 122.3,419.59 193.28,844.33 238.82,1268.12 21.92,203.95 78.29,713.54 161.36,821.45 61.8,80.27 328.69,153.03 282.56,-37.31 -31.69,-130.76 -87.27,-263.76 -90.68,-416.66 125.93,-33.62 194.98,-173.49 128.72,-324.97 -54.28,-124.07 -95.52,-142.25 -172.41,-352.05 -182.93,-499.02 -212.11,-1116.68 -465.8,-1587.15l-291.34 -473.07c-13.6,-24.46 -41.36,-70.36 -47.59,-83.45 -27.73,-58.19 -22.94,-5.16 -25.18,-105.85 39.05,-20.67 72.55,-33.7 116.63,-58.1l101.77 -72.94c-717.53,0 -379.47,-10.37 -742.14,-154.81 -101.53,-40.43 -568.26,134.76 -568.26,-303.83 250.16,-58.28 227.28,-121.95 590.33,-109.99 596.85,19.67 1316.12,622.61 1615.5,175.51 126.24,0 158.59,32.86 279.99,19.4 102.85,-11.41 174.89,-19.4 309.7,-19.4 -14.93,31.09 -105.78,352.01 -109.21,393.12 169.1,-113.24 382.9,-455.16 488.04,-647.65 111.69,-204.48 314.78,-579.61 320.04,-815.63l-50.1 102.78c-147.12,348.61 -495.99,825.61 -889.37,857.88l-277.37 -21.56c-30.48,-4.8 -3.68,-4.61 -35.12,0.6 -57.62,9.55 40.78,6.56 -59.01,15.67 -77.31,7.06 -54.24,-14.07 -152.31,-16.25 20.63,77.25 23.29,67.34 109.21,87.36 -196.8,268.61 -501.54,-21.94 -667.12,-162.8 -101.62,-86.47 -241.39,-165.85 -323.27,-266.71 -66.77,-82.25 -33.21,-159.56 -6.59,-261.65 67.19,-257.72 689.87,-725.84 -32.33,-1031.37 -82.68,-34.98 -163.73,-48.15 -281.08,-48.01 -355.17,0.43 -880.71,251.54 -1092.01,-64.02 8.67,-9.96 30.21,-33.77 41.63,-45.73 2.95,-3.08 7.63,-7.93 10.72,-11.11l332.18 -323.03c220.36,-237.85 379.34,-514.79 525.75,-806.48l129.39 -329.25c26,-73.97 50.46,-125.6 52.33,-209.75 -80.83,54.13 -110.29,139.09 -159.5,233.62 -58.16,111.74 -104.49,129.42 -233.62,159.5 0,-571.26 288.13,-878.95 284.82,-1398.36 -2.6,-407.62 -231.23,-756.92 84.21,-1093.65 3.07,-3.28 7.67,-7.82 10.74,-11.09l433.41 -483.87c307.53,-345.15 588.33,-698.26 1111.14,-788.94 240.54,-41.72 560.96,-22.85 740.15,63.12 -9.01,108.35 -92.99,151.7 -158.03,213.25 -127.15,120.33 -270.9,226.6 -362.26,380.3 -38.5,64.77 -89.1,184.78 -91.23,280.05 107.02,-28.58 135.28,-225.66 322.63,-398.09l79.61 -73.27c262.96,-240.64 849.77,-622.56 1173.11,-317.75l461.23 456.05c52.32,52.32 88.58,90.88 141.82,142.1 32.11,30.9 47.52,42.27 79.95,72.93l236.32 222.32c63.57,74.43 58.2,111.13 191.64,114.1 -46.58,63.58 -25.3,19.16 -77.1,75.78l-194.3 264.33c-58.01,77.38 -218.45,317.64 -274.59,358.78 -2.58,-115.79 -43.68,-203.53 -43.68,-327.6l-43.68 0c0,396.28 17.41,435.01 -59.68,835.76 -20.74,107.85 -49.52,163.61 -49.52,278.07l43.68 0c13.26,-159.39 119.72,-278.96 131.04,-414.96 116.25,9.68 58.9,27.39 139.56,78.84 104.95,66.97 280.98,43.02 385.76,72.88 80.62,22.97 93.44,48.02 173.55,66.69 0,189.73 -61.93,166.7 -65.51,327.59 162.99,-43.52 4.38,-228.96 245.15,-519.24 76.02,-91.66 133.59,-121.3 150.19,-242.93l85.13 -307.99c252.85,0 125.96,29.18 262.08,65.53 0,-230.8 -119.52,-342.05 -131.04,-480.49 58.06,4.84 136,29.13 188.53,51.73 72.76,31.3 86.3,49.8 125.22,115.01 192.68,322.88 311.33,652.27 458.18,1006.26 61,147.07 -17.35,198.99 -90.73,316.28 -64.88,103.7 -119.19,187.29 -188.85,291.63l-383.26 577.81z"/>
   <path class="fil2 str0" d="M19994.02 4759.12l-65.52 0 -95.81 -340.99c-29.9,-121.96 -63.29,-254.75 -144.43,-314.21 -317.12,84.68 -353.5,1053.39 -524.16,1375.92 -242.57,0 -481.73,-160.61 -554.24,35.43 -40.64,109.86 -52.95,509.9 -56.71,664.02 -8.55,351.24 -153.45,985.09 -153.45,1309.82 53.81,-39.43 84.36,-106.67 109.23,-174.69 159.84,-437.39 153.22,-764.27 241.53,-1178.06 39.36,-184.4 49.54,-286.59 129.73,-438.12 153.73,35.81 243.64,129.71 436.79,174.72 163.38,-243.99 160.51,-1029.26 305.76,-1135.68 102.46,23.87 63.47,8.52 97.97,76.75l79.07 161.16c49.35,107.35 -10.72,69.05 150.56,177.05 235.84,-62.97 305.76,-362.09 305.76,-589.68 112.63,26.24 110.45,87.36 174.72,87.36 172.27,0 430.32,-260.59 537.17,30.66 146.96,400.59 -23.43,1102.7 -298.44,1365.59l-22.45 21.23c-211.73,196.91 -464.78,195.13 -893.2,570.08 -50.99,44.62 -27.17,26.28 -72.83,80.04 -47.16,55.55 -82.74,105.23 -129.13,154.79 -121.11,129.37 -414.73,480.66 -431.51,682.32 92.41,-33.45 48.89,-56.22 132.9,-151.01 23.31,-26.3 1.17,-2.83 33.25,-32.27 518.78,-476.19 514.91,-459.01 1104.51,-817.4l494.68 -357.09c330.95,-378.1 428.07,-1062.87 305.64,-1543.14 -15.8,-61.96 -39.63,-147.52 -56.59,-205.48 -27.55,-94.14 -51.92,-111.08 -70.64,-191.44 -130.22,0 -177.8,-7.46 -282.08,23.68 -70.31,20.99 -180.49,56.73 -263.92,63.69 0,-78.91 -24.1,-210.16 -38.19,-267.58 -27.19,-110.83 -69.67,-135.27 -92.85,-234.75 -156.65,41.83 -224.91,222.15 -266.91,388.3 -20.08,79.46 -41.14,180.15 -58.59,269l-67.62 259.98z"/>
   <path class="fil2 str0" d="M16892.86 4933.84l-0.11 -25.93c-43.75,87.61 1.51,20.34 -65.52,45.19l-131.04 -194.09c-65.53,41.27 -74.55,0.93 -146.15,51.09 -79.11,55.4 -3.5,35.07 -122.72,85.22 -144.55,60.81 -61.4,20.43 -159.59,2.09 -32.4,-6.05 -68.48,-4.05 -95.4,-10.7l-65.82 -27.14c-5.23,-10.61 -16.31,-6.6 -21.73,-13.09 -26.64,-34.44 -98.43,-60.26 -143.26,-96.99l-66.58 -64.56c-122.05,-132.74 -156.15,-239.52 -220.7,-325.3 -65.8,-87.43 13.86,-47.38 -93.72,-59.15 36.4,437.41 238.48,336.03 240.24,1812.72 0.76,634.8 -218.41,1403.34 -418.29,1896.74 -23.56,58.15 -46.71,117.94 -74.55,187.53 -53.2,132.99 -96.57,241.27 -150.08,374.08 -52.18,129.47 -86.2,235.86 -136.81,365.51 -170.12,435.83 -252.06,695.04 -364.67,1185.96l-126.03 660.98c-17.23,91.6 -51.46,143.07 25.55,199.5l755.16 -2062.19c39.6,-138.75 75.76,-244.25 115.49,-364.99 129.74,-394.33 226.47,-433.2 361.75,-1057.84 15.71,-72.55 34.03,-122.01 47.02,-193.22 93.55,-512.99 256.21,-883.64 171.29,-1463.43 -19.03,-129.99 -67.82,-804.25 -96.64,-864.31 157.93,0 295.62,46.56 445.97,9.19 201.98,-50.19 172.24,-150.7 296.59,-183.91 50.04,36.67 114.64,136.06 139.77,209.67 35.47,103.87 32.46,210.02 56.79,314.49l13.07 -30.6c5.63,-16.71 11.25,-32.11 15.48,-50.05 19.11,-80.97 43.23,-240 15.24,-312.47z"/>
   <path class="fil2 str0" d="M23597.6 11704.21c209.03,-17.39 200.22,-290.69 217.65,-546.75 6.36,-93.58 26.22,-161.92 20.12,-235.58 -88.41,-1068.47 -167.03,-1577.32 -580.89,-2543.65 -105.84,-247.14 -235.38,-437.36 -370.5,-655.97 -118.24,-191.3 -434.14,-601.23 -569.03,-741.37l-574.72 -473.6c-139.59,-90.88 -410.75,-193.57 -588.7,-197.53 21.12,79.06 141.95,124.89 274.71,205.77 103.17,62.85 190.47,126.3 276.93,203.55 173.99,155.44 271.31,203.52 445.04,406.71 2.93,3.44 7.09,8.38 10.01,11.84l49.61 59.58c44.81,52.1 72,72.04 114.15,126.1l486.65 736.38c162.39,295.62 265.01,538.99 368.68,854.35 29.58,89.97 46.72,110.36 71.07,191.01 102.28,338.66 126.84,419.52 190.18,792.63 44.03,259.41 72.37,622.88 71.71,911.07 -0.64,283.64 -8.19,714.94 87.33,895.46z"/>
   <path class="fil2 str0" d="M6977.43 7358.07c-72.45,-108.19 -151.72,-154.36 -231.31,-227.33 -273,-250.28 -469.11,-501.13 -637.93,-825.35 -49.43,-94.93 -157.24,-368.2 -157.24,-497.96 170,14.15 596.06,119.81 805.41,155.55 121.6,20.77 261.4,57.01 394.39,86.09l402.38 99.94c502.75,145.99 630.88,218.46 861.56,579.88 45.87,71.86 148.14,263.05 200.73,301.58 -2.68,-120.04 -92.28,-337.23 -133.76,-434.08 -48.37,-112.94 -88.82,-167.04 -164.92,-250.03l-75.8 -77.08c-313.38,-288.83 -813.18,-373.97 -1212.02,-491.5 -243.86,-71.84 -1209.45,-297.94 -1405.57,-297.94 0,411.49 232.91,840.21 437.76,1178.4l123.06 160.85c2.97,3.39 7.23,8.26 10.22,11.62l143.11 140.81c43.9,39.78 69.2,66.29 110.17,108.23 114.47,117.19 372.43,265.23 529.76,278.32z"/>
   <path class="fil2 str0" d="M5055.52 5916.64c0,286.77 7.36,273.35 137.02,561.85l345.3 528.29c173.48,203.23 208.71,243.48 434.95,394.97 -19.82,238.1 -67.41,550.8 -128.14,745.45 -94.6,303.22 -244.14,652.35 -493.08,861l-234.31 180.66c-124.99,82.26 -462.5,239.8 -651.43,244.01l0 43.67c338.33,28.16 69.77,10.96 349.35,-0.08 688.45,-27.17 1105.48,-626 1250.05,-1239.71 9.92,-42.14 17.23,-108.69 30.05,-166.51 50.48,-227.73 36.67,-471.02 -3.57,-700.06 -98.88,-562.76 -56.9,235.22 -413.63,-481.8 -64.74,-130.11 -129.86,-279.47 -163.93,-425.75 161.11,37.54 115.33,103.31 371.28,43.68 -44.79,-66.88 -25.5,-38.68 -94.03,-80.68l-242.67 -215.97c-100.17,-108.98 -116.71,-175.25 -256.44,-267.74 -50.79,-33.63 -236.77,-148.95 -236.77,-25.28z"/>
   <path class="fil2 str0" d="M6846.39 6593.67l0 0zm0 0c-131.3,-30.58 -231.91,-164.93 -349.44,-174.71 130.98,562.23 647.38,805.52 1152.69,922.1 282.1,65.09 416.5,-8.98 702.14,258.81l88.08 86.64c37.95,34.16 2.4,25.76 66.36,42.84 -13.85,-166.48 -197.79,-365.84 -314.69,-493.38 -3.04,-3.32 -7.55,-7.94 -10.64,-11.2l-21.75 -21.94c-15.73,-15.71 -12.2,-12.61 -33.22,-32.31 -392.9,-368.02 -962.69,-733.81 -1453.64,-948.73 -87.04,-38.1 -246.55,-121.82 -350.05,-130.44l524.16 502.32z"/>
   <path class="fil2 str0" d="M12830.53 10983.5l43.68 0c28.97,-124.36 54.65,-277.43 83.14,-397.34l96.35 -384.13c229.62,-821.74 476.67,-1421.64 968.36,-2154.74 35.51,-52.95 57.45,-95.31 90.12,-150.12 138.36,-232.11 396.51,-708.98 484.87,-956.57 22.61,-63.36 44.81,-112.97 68.41,-171.83 178.65,-445.4 239.86,-960.58 239.86,-1463.65l-65.52 0c0,157.87 -43.33,266.13 -68.35,412.13 -72.31,421.87 -155.97,739.85 -309.3,1132.14l-469.38 972.05c-12.75,23.24 -24.39,48.12 -38.1,71.1l-327.31 524.44c-190.3,345.04 -316.85,458.65 -510.04,931.4 -215.66,527.73 -286.79,896.84 -286.79,1635.12z"/>
   <path class="fil2 str0" d="M16434 4759.12c-77.61,31.6 -5.11,-0.23 -72.67,35.37 -44.69,23.54 -30.48,23.05 -72.43,37.81 -64.87,22.82 -126.43,14.18 -204.12,14.18 5.42,6.49 16.5,2.48 21.73,13.09l65.82 27.14c26.92,6.65 63,4.65 95.4,10.7 98.19,18.34 15.04,58.72 159.59,-2.09 119.22,-50.15 43.61,-29.82 122.72,-85.22 71.6,-50.16 80.62,-9.82 146.15,-51.09l131.04 194.09c67.03,-24.85 21.77,42.42 65.52,-45.19l0.11 25.93c131.43,23.56 192.88,123.86 244.8,235.56 58.86,126.63 97.6,377.51 105.4,529.47 5.3,103.64 -17.05,149.88 -22.07,240.25 -6.45,116.07 -11.75,152.41 -24.34,259.58 -18.7,159.04 -54.32,356.79 -19.98,504.18l20.69 -66.67c41.93,-206.59 137.81,-1184.43 165.44,-1233.52 47.25,-83.96 103.14,65.09 175.09,130.89 142.61,130.43 189.36,-32.19 235.82,135.46 24.22,87.43 37.94,195.98 69.02,302.26l120.18 294.78c0,-246.09 27.83,-358.91 -48.32,-606.89 -74.51,-242.64 -265.84,-438.37 -457.25,-591.06 -220.15,-175.61 -209.27,-267.23 -318.3,-380.58 -60.98,-63.39 -142.38,-111.34 -180.77,-168.67 9.71,-36.61 10.32,-50.31 21.84,-87.25 -80.03,13.5 -8.38,-19.68 103.71,-158.92 45.1,-56.04 122.67,-145.27 146.7,-208.01 34.17,-89.18 -6.45,-27.63 26.26,-125.44 31.47,-94.1 32.05,-251.56 -20.18,-352.47 -25.13,-48.55 -10.54,-25.86 -49.33,-58.29l13.79 225.98c-151.26,120.81 -381.33,500.26 -490.05,673.31l-173.32 258.28c-39.35,32.91 -71.85,24.75 -110.76,98.89l7.07 -25.84z"/>
   <path class="fil2 str0" d="M16543.31 8996.07c0,782.61 25.43,1652.51 394.13,2314.02 73.85,132.48 212.69,395.73 370.27,437.81 -29.6,-127.06 -319.35,-634.23 -393.52,-916.88l-129.49 -853.31c-9.38,-117.38 -3.8,-214.14 -17.02,-310.57 -28.2,-205.73 0.27,-453.94 14.73,-628.54 19.11,-230.89 -0.61,-883.52 1.43,-1222.18 1.31,-216.61 -46.87,-392.52 -87.65,-567.55l-43.68 0c0,329.01 -67.03,609.51 -66.12,851.16 1.15,305.92 -43.08,569.59 -43.08,896.04z"/>
   <path class="fil2 str0" d="M20408.98 9629.42c-281.61,0 -585.56,-44.69 -837.57,-167.07 -56.03,-27.2 -512.53,-274.85 -560.18,-226.05 -71.97,73.69 496.93,455.95 621.66,514.02 862.99,401.78 1595.44,116.52 2086.83,-622.87 121.74,-183.17 376.41,-809.41 133.89,-500.99l-314.14 386.26c-273.91,295.65 -705.1,616.7 -1130.49,616.7z"/>
   <path class="fil2 str0" d="M18792.82 9760.46c0,368.17 137.22,712.93 329.43,937.29l29.79 35.73c500.51,600.25 1387.98,215.48 1387.98,-558.06 -285.16,0 -119.26,21.03 -431.3,333.1 -579.13,579.19 -1062.74,57.97 -1154.43,-581.92 -42.08,-293.72 1.8,-124.26 -74.1,-450.06 -70.61,51.73 -87.37,194.31 -87.37,283.92z"/>
   <path class="fil2 str0" d="M17438.75 9192.62c0,208.42 -30.22,218.41 327.6,218.41 283.12,0 610.62,-155.22 827.12,-243.04 165.3,-67.06 593.76,-261.78 679.84,-390.32 -237.86,0 -559.81,96.66 -756.44,160.84l-492.66 184.38c-186.71,80.69 -457.17,109.01 -317.97,-230.48 107.12,-261.27 476.5,-780.89 496.91,-857.3 -85.2,7.09 -108.86,48.55 -165.05,97.03 -3.42,2.95 -8.37,7.1 -11.8,10.05 -279.08,240.1 -587.55,684.42 -587.55,1050.43z"/>
   <path class="fil2 str0" d="M21064.18 11442.14c0,308.35 -43.68,506.67 -43.68,851.76 0,87.07 61.86,65.51 218.39,65.51 260.28,0 99.33,-1118.26 29.93,-1384 -39.05,-149.54 -90.76,-289.75 -142.14,-425.7 -80.04,-211.8 -317.84,-608.42 -263.08,-309.78 58.99,321.68 200.58,957.21 200.58,1202.21z"/>
   <path class="fil2 str0" d="M18989.39 12031.82c89.3,383.33 588.65,127.07 747.99,-16.4 128.07,-115.32 239.94,-215.96 360.81,-338.07 54.6,-55.18 98.29,-114.34 148.69,-178.91 143.06,-183.25 326.5,-436.02 380.5,-667.82 -125.04,10.4 -217.92,184.53 -365.7,333.18 -63.64,64.01 -115.76,104.79 -187.18,162.25 -79.15,63.68 -122.93,110.33 -201.67,169.62 -254.48,191.57 -382.6,248.83 -690.26,358.06 -118.87,42.19 -132.19,86.99 -193.18,178.09z"/>
   <path class="fil2 str0" d="M4334.79 10917.98c0,264.67 424.64,474.01 626.59,552.77 56.99,22.22 87.42,27.47 148.61,47.95 100.23,33.56 57.38,28.41 185.82,33.6l350.3 0c274.49,-5.82 745.39,-272.4 763.48,-437.76 -151.36,72.62 -283.73,75.73 -470.46,119.22 -170.72,39.75 -338.95,77.34 -534.18,77.34 -58.2,0 25.03,-28.97 -84.33,-34.76 -299.45,-15.87 -59.63,12.1 -347.71,-57.36l-441.55 -104.44 0 -65.52c96.6,-2.15 46.62,7.28 105.6,-25.43 86.26,-47.82 177.65,-140.06 200.15,-236.65 -92.93,0 -502.32,-95.24 -502.32,131.04z"/>
   <path class="fil2 str0" d="M4072.71 10721.42c-25.57,-95.76 -107.9,-104.47 -187.94,-268.94 -124.82,-256.48 -56.34,-663.39 -52.29,-844.9 184.51,97.64 279.72,196.9 420.86,343.54l365.37 399.02c-3.45,-155.06 -276.53,-656.85 -427.45,-817.42 -265.29,-282.22 -356.55,-221.99 -511.66,-296.42 -110.49,230.27 -109.01,646.61 -66.27,896.19 46.69,272.7 252.13,540.64 459.38,588.93z"/>
   <path class="fil2 str0" d="M13332.84 3579.76c182.48,-4.06 617.96,-96.98 795.69,-187.1 182.95,-92.77 274.47,-190.74 274.47,-380.73 0,-108.42 -51.75,-108.08 -93.73,-190.19 -32.65,-63.85 -51.84,-142.17 -80.99,-202.93 -91.57,24.45 -216.59,101.5 -289.71,168.93 -92.59,85.38 -299.16,460.29 -501.96,655.55 -52.4,50.45 -84.63,64.79 -103.77,136.47z"/>
   <path class="fil2 str0" d="M20037.7 7882.23c0,201.5 150.77,240.24 349.44,240.24 112.92,0 305.76,-159.71 305.76,-262.08 0,-126.75 -56.15,-193.13 -65.52,-305.76 -90.62,7.55 -74.68,13.58 -119.85,76.72 -36.07,50.42 -55.08,87.99 -98.55,119.84 -3.91,-3.4 -10.58,-13.24 -12.18,-9.65l-22.84 -20.85c-89.93,-108.59 -1.61,-110.05 -117.86,-187.9 -110.26,29.44 -218.4,238.08 -218.4,349.44z"/>
   <path class="fil2 str0" d="M6846.39 8646.63c347.28,0 286.58,-75.14 830.95,-22.09 189.46,18.47 282.02,56.44 73.92,-162.05 -206.77,-217.08 -595.16,-223.7 -787.43,-26.02l-57.52 73.52c-34.83,50.41 -53.81,63.23 -59.92,136.64z"/>
   <path class="fil2 str0" d="M11956.93 3186.64c64.88,-17.32 88.98,-52.91 143.83,-96.41 56.69,-44.97 85.11,-77.78 134.64,-127.43 44.78,-44.92 77.02,-74.49 119.58,-120.66l62.51 -68.53c22.44,-23.36 43.84,-44.5 63.71,-67.32 116.11,-133.23 374.25,-437.4 414.84,-611.64 -148.84,12.38 -437.52,371.48 -529.06,475.57 -79.36,90.23 -142.15,194.87 -213.57,288.74 -48.7,64.01 -175.17,247.84 -196.48,327.68z"/>
   <path class="fil2 str0" d="M8134.94 5436.16c140.81,-3.14 536.57,-220.38 659.35,-279.77 305.98,-148 580.5,-149.48 585.52,-375.43 -171.39,0 -240.85,38.98 -360.22,98.41l-304.02 176.45c-189.99,105.48 -471.46,217.31 -580.63,380.34z"/>
   <path class="fil2 str0" d="M6824.55 8886.87c0,257.94 279.3,283.92 502.31,283.92 -35.15,-131.67 -76.05,-51.38 -152.88,-196.57l218.41 -109.19c-88.9,-121.34 -567.84,-171.1 -567.84,21.84z"/>
   <path class="fil2 str0" d="M19797.46 7641.99c114.14,-9.49 52.14,-26.19 213.98,-135.46 79.12,-53.42 120.49,-90.6 207.38,-142.06 107.59,-63.71 129.81,-58.24 253.49,-95.96 117.1,-35.7 168.63,-43.25 198.75,-172.52 -86.76,-7.22 -52.61,-21.83 -109.2,-21.83 -217.61,0 -434.68,124.47 -550.18,257.89l-69.63 83.25c-2.95,3.42 -7.18,8.29 -10.15,11.7 -56.22,64.7 -112.57,121.11 -134.44,214.99z"/>
   <polygon class="fil2 str0" points="8134.94,5436.16 8113.1,5436.16 8131.3,5461.64 "/>
  </g>
 </g>
</svg>
