<?xml version="1.0" encoding="UTF-8"?>
<!DOCTYPE svg PUBLIC "-//W3C//DTD SVG 1.1//EN" "http://www.w3.org/Graphics/SVG/1.1/DTD/svg11.dtd">
<!-- Creator: CorelDRAW 2018 (64 Bit Versão de avaliação) -->
<svg xmlns="http://www.w3.org/2000/svg" xml:space="preserve" width="285.75mm" height="169.333mm" version="1.1" style="shape-rendering:geometricPrecision; text-rendering:geometricPrecision; image-rendering:optimizeQuality; fill-rule:evenodd; clip-rule:evenodd"
viewBox="0 0 28575 16933.32"
 xmlns:xlink="http://www.w3.org/1999/xlink">
 <defs>
  <style type="text/css">
   <![CDATA[
    .str0 {stroke:black;stroke-width:52.91;stroke-miterlimit:22.9256}
    .fil0 {fill:black}
   ]]>
  </style>
 </defs>
 <g id="Camada_x0020_1">
  <metadata id="CorelCorpID_0Corel-Layer"/>
  <g id="_3023651213072">
   <path class="fil0 str0" d="M9060.38 9292.03c0,1137.97 269.6,816.11 302.33,1209.39 -672.72,-14.98 -525.06,-1155.67 -458.72,-1577.41 34.31,-218.14 27.44,-297.14 277.31,-297.14 -4.96,222.57 -120.92,428.19 -120.92,665.16zm-483.76 -6046.91c84.97,115.97 168.22,30.23 362.81,30.23 362.75,0 743.44,-31.16 954.56,315.29 43.19,70.92 27.27,-37.36 43.18,108 -359.2,0 -674.8,-21.78 -957.81,70.15 -319.81,103.87 -644.86,509.43 -344.67,418.89 265.67,-80.13 218.27,-259.11 698.01,-339.71 235.87,-39.63 630.43,65.43 876.6,122.76 -50.49,139.4 -221.19,164.65 -349.28,195 -406.97,96.42 -399.4,422.04 -183.69,306.81 372.83,-199.19 312.09,-229.68 805.06,-229.68 -2.85,128.28 -31.39,373.07 -96.18,448.03 -292.32,338.12 -1400.07,-46.45 -1798.88,-246.11 -102.7,-51.41 -187.09,-91.44 -280.13,-143.16 -355.06,-197.42 -1152.5,-534.49 -446.43,-957.01 911.63,-545.51 2459.64,-562.63 2500.69,-69.26 -431.9,0 -808.39,-294.63 -1468.93,-138.59 -151.01,35.68 -166.76,96.02 -314.91,108.36zm9433.04 2660.63l-9.8 35.78c53.87,-102.64 98.86,-91.33 153.33,-136.9l239.95 -357.55c150.51,-239.58 469.01,-764.88 678.4,-932.11l-19.08 -312.85c53.7,44.9 33.51,13.49 68.29,80.7 72.3,139.69 71.5,357.67 27.94,487.95 -45.29,135.4 10.95,50.2 -36.36,173.66 -33.27,86.84 -140.65,210.37 -203.09,287.95 -155.17,192.77 -254.36,238.7 -143.57,220.01 120.97,-2.99 406.56,-452.06 439.88,-558.02 106.97,-340.08 -17.97,-600.34 -111.12,-859.34 -44.93,-124.95 -88.2,-238.84 -130.26,-383.72 -513.61,-1769.82 -885.39,-1119.61 -1303.55,-1234.18 -92.17,-25.26 -65.07,-46.32 -157.07,-86.77 -83.13,-36.55 -109.04,-24.88 -199.69,-72.45 -282.33,-148.15 -520.76,-362.74 -754.77,-575.54 -22.78,-20.71 -45.6,-39.14 -63.73,-57.21l-433.18 -504.09c-201.34,-216.57 -411.94,-538.39 -764.02,-566.72 -206.85,-16.65 -298.19,29.06 -482.02,31.32 -787.73,9.73 -875.27,-54.96 -1512.98,-92.25 -560.51,-32.79 -1247.38,139.4 -1610.08,506.64 -428.03,433.38 -1178.62,1233.89 -1322.62,1852.01 -159.34,-3.55 -293.74,-59.66 -425.28,-88.72 -490.97,-108.48 -929.07,-163.42 -1401.12,-44.54 -374.78,94.38 -770.55,284.72 -992.79,609.65 -425.92,622.78 382.14,972.2 719.66,1199.85l237.56 125.25c6.59,2.81 14.35,6.5 20.82,9.42 39.04,17.74 37.61,24.35 101.97,49.21 331.24,127.89 654.1,247.67 1009.76,320.55 109.56,22.45 94.49,39.4 208.93,65.16l460.01 21.75c0,304.02 -250.39,1008.78 -320.23,1372.92 -219.54,1144.72 -955.04,943.01 -1411.84,2397.7 -24.92,79.37 -55.49,262.6 -70.46,352.84 -34.8,209.63 -57.19,582.28 139.63,714.09 -35.7,95.69 65.66,43.36 -90.7,60.47 0,403.48 408.83,709.79 707.91,834.05l351.58 132.17c504.45,257.96 227.62,248.71 928.04,432.52 703.49,184.61 941.1,1002.86 1123.34,1628.02 169.31,580.87 267.58,1168.87 330.62,1755.56 30.34,282.33 108.38,987.8 223.38,1137.18 85.56,111.13 455.02,211.86 391.17,-51.65 -43.87,-181.02 -120.81,-365.14 -125.54,-576.81 174.33,-46.54 269.93,-240.17 178.19,-449.87 -75.13,-171.77 -132.23,-196.94 -238.67,-487.38 -253.25,-690.83 -293.64,-1545.9 -644.85,-2197.21l-403.31 -654.9c-18.83,-33.86 -57.26,-97.41 -65.89,-115.52 -38.38,-80.56 -31.76,-7.16 -34.85,-146.54 54.06,-28.62 100.43,-46.65 161.45,-80.43l140.89 -100.98c-993.33,0 -525.32,-14.35 -1027.4,-214.32 -140.56,-55.97 -786.68,186.56 -786.68,-420.61 346.32,-80.68 314.64,-168.82 817.23,-152.26 826.26,27.22 1822.01,861.92 2236.45,242.96 174.77,0 219.56,45.5 387.62,26.86 142.38,-15.79 242.12,-26.86 428.74,-26.86 -20.67,43.04 -146.43,487.32 -151.19,544.23 234.1,-156.77 530.08,-630.11 675.63,-896.58 154.62,-283.09 435.78,-802.4 443.06,-1129.14l-69.36 142.28c-203.66,482.61 -686.64,1142.95 -1231.21,1187.62l-383.99 -29.85c-42.19,-6.64 -5.1,-6.37 -48.63,0.84 -79.76,13.22 56.46,9.08 -81.68,21.7 -107.03,9.77 -75.09,-19.49 -210.86,-22.5 28.56,106.93 32.24,93.22 151.19,120.93 -272.44,371.86 -694.32,-30.37 -923.54,-225.37 -140.68,-119.71 -334.18,-229.6 -447.53,-369.22 -92.43,-113.86 -45.98,-220.9 -9.13,-362.22 93.02,-356.79 955.05,-1004.84 -44.75,-1427.8 -114.46,-48.43 -226.67,-66.67 -389.12,-66.48 -491.69,0.6 -1219.23,348.24 -1511.74,-88.62 12,-13.79 41.81,-46.76 57.62,-63.3 4.08,-4.28 10.56,-10.98 14.85,-15.38l459.85 -447.2c305.07,-329.27 525.15,-712.66 727.84,-1116.47l179.12 -455.8c36,-102.4 69.86,-173.88 72.45,-290.38 -111.91,74.94 -152.69,192.56 -220.81,323.42 -80.51,154.68 -144.66,179.16 -323.41,220.8 0,-790.83 398.87,-1216.78 394.28,-1935.84 -3.6,-564.3 -320.1,-1047.86 116.58,-1514.02 4.26,-4.54 10.62,-10.82 14.87,-15.36l600 -669.86c425.75,-477.81 814.48,-966.65 1538.23,-1092.18 333.01,-57.75 776.59,-31.63 1024.65,87.39 -12.48,149.99 -128.73,210 -218.77,295.21 -176.03,166.58 -375.02,313.7 -501.5,526.47 -53.31,89.67 -123.36,255.82 -126.3,387.7 148.16,-39.56 187.28,-312.4 446.64,-551.11l110.21 -101.42c364.03,-333.14 1176.4,-861.86 1624.03,-439.9l638.5 631.35c72.44,72.44 122.63,125.81 196.34,196.72 44.45,42.77 65.78,58.52 110.68,100.96l327.15 307.78c88,103.04 80.57,153.85 265.31,157.95 -64.49,88.02 -35.03,26.53 -106.74,104.91l-268.98 365.94c-80.31,107.12 -302.42,439.73 -380.14,496.68 -3.57,-160.3 -60.47,-281.76 -60.47,-453.52l-60.46 0c0,548.6 24.1,602.21 -82.62,1156.99 -28.72,149.31 -68.56,226.5 -68.56,384.97l60.47 0c18.35,-220.66 165.74,-386.19 181.41,-574.46 160.93,13.39 81.54,37.91 193.2,109.14 145.29,92.71 388.98,59.56 534.04,100.89 111.61,31.8 129.35,66.47 240.26,92.32 0,262.66 -85.74,230.77 -90.7,453.51 225.64,-60.25 6.07,-316.97 339.39,-718.82 105.23,-126.9 184.94,-167.93 207.92,-336.31l117.84 -426.38c350.04,0 174.37,40.41 362.82,90.73 0,-319.51 -165.47,-473.53 -181.41,-665.18 80.38,6.7 188.28,40.32 261,71.61 100.72,43.33 119.47,68.94 173.35,159.22 266.74,446.98 430.99,902.99 634.29,1393.04 84.44,203.59 -24.02,275.47 -125.6,437.85 -89.82,143.56 -165.01,259.28 -261.45,403.73l-530.56 799.89z"/>
   <path class="fil0 str0" d="M22938.05 5905.75l-90.7 0 -132.65 -472.04c-41.39,-168.84 -87.61,-352.68 -199.94,-434.99 -439.01,117.23 -489.37,1458.28 -725.63,1904.78 -335.8,0 -666.9,-222.34 -767.27,49.05 -56.27,152.09 -73.31,705.89 -78.51,919.25 -11.84,486.25 -212.43,1363.73 -212.43,1813.28 74.48,-54.58 116.78,-147.66 151.2,-241.84 221.29,-605.5 212.13,-1058.02 334.38,-1630.87 54.48,-255.27 68.58,-396.74 179.59,-606.51 212.82,49.57 337.28,179.55 604.68,241.86 226.18,-337.76 222.2,-1424.87 423.29,-1572.19 141.84,33.04 87.86,11.79 135.62,106.25l109.47 223.11c68.31,148.61 -14.84,95.58 208.42,245.1 326.5,-87.18 423.29,-501.27 423.29,-816.34 155.93,36.33 152.91,120.93 241.88,120.93 238.49,0 595.73,-360.74 743.64,42.46 203.45,554.56 -32.43,1526.54 -413.15,1890.47l-31.08 29.4c-293.11,272.59 -643.43,270.12 -1236.52,789.2 -70.59,61.77 -37.61,36.38 -100.82,110.81 -65.29,76.9 -114.54,145.67 -178.76,214.28 -167.67,179.1 -574.15,665.41 -597.37,944.59 127.93,-46.31 67.67,-77.83 183.98,-209.05 32.27,-36.42 1.62,-3.92 46.03,-44.68 718.19,-659.23 712.83,-635.44 1529.05,-1131.59l684.83 -494.34c458.15,-523.44 592.6,-1471.41 423.11,-2136.28 -21.87,-85.78 -54.86,-204.23 -78.34,-284.47 -38.15,-130.32 -71.88,-153.78 -97.8,-265.02 -180.26,0 -246.14,-10.33 -390.5,32.79 -97.34,29.05 -249.86,78.52 -365.36,88.17 0,-109.25 -33.36,-290.95 -52.87,-370.44 -37.64,-153.42 -96.45,-187.26 -128.54,-324.98 -216.86,57.91 -311.36,307.54 -369.5,537.55 -27.8,110.01 -56.95,249.4 -81.11,372.4l-93.61 359.9z"/>
   <path class="fil0 str0" d="M18644.88 6147.63l-0.14 -35.89c-60.57,121.28 2.09,28.16 -90.71,62.55l-181.41 -268.68c-90.72,57.13 -103.2,1.29 -202.32,70.72 -109.52,76.7 -4.85,48.55 -169.9,117.99 -200.1,84.17 -85,28.28 -220.92,2.89 -44.86,-8.38 -94.8,-5.61 -132.08,-14.82l-91.12 -37.57c-7.23,-14.69 -22.57,-9.14 -30.08,-18.12 -36.87,-47.69 -136.27,-83.43 -198.33,-134.27l-92.17 -89.37c-168.95,-183.76 -216.17,-331.6 -305.53,-450.34 -91.09,-121.04 19.2,-65.59 -129.74,-81.89 50.39,605.53 330.15,465.2 332.58,2509.49 1.05,878.79 -302.36,1942.73 -579.07,2625.78 -32.62,80.51 -64.66,163.28 -103.2,259.62 -73.65,184.1 -133.69,334.01 -207.77,517.86 -72.23,179.24 -119.34,326.52 -189.4,506.01 -235.5,603.35 -348.94,962.19 -504.83,1641.81l-174.47 915.04c-23.86,126.81 -71.25,198.07 35.37,276.18l1045.42 -2854.83c54.81,-192.1 104.88,-338.15 159.88,-505.29 179.61,-545.9 313.51,-599.71 500.8,-1464.44 21.74,-100.45 47.11,-168.92 65.09,-267.49 129.51,-710.17 354.69,-1223.29 237.12,-2025.94 -26.34,-179.95 -93.88,-1113.38 -133.78,-1196.52 218.64,0 409.25,64.45 617.39,12.72 279.62,-69.48 238.45,-208.63 410.59,-254.6 69.28,50.77 158.71,188.35 193.49,290.26 49.11,143.79 44.95,290.74 78.62,435.37l18.09 -42.36c7.8,-23.13 15.58,-44.45 21.44,-69.29 26.45,-112.09 59.84,-332.24 21.09,-432.58z"/>
   <path class="fil0 str0" d="M27926.75 15520.35c289.37,-24.07 277.17,-402.42 301.3,-756.9 8.81,-129.55 36.31,-224.17 27.86,-326.13 -122.39,-1479.17 -231.24,-2183.6 -804.17,-3521.37 -146.52,-342.13 -325.86,-605.46 -512.91,-908.1 -163.69,-264.84 -601.02,-832.32 -787.75,-1026.34l-795.63 -655.63c-193.24,-125.82 -568.63,-267.97 -814.98,-273.46 29.24,109.45 196.51,172.9 380.31,284.86 142.82,87.02 263.67,174.86 383.37,281.8 240.86,215.18 375.59,281.75 616.1,563.03 4.06,4.76 9.82,11.61 13.86,16.4l68.68 82.48c62.03,72.12 99.67,99.72 158.02,174.56l673.7 1019.43c224.81,409.25 366.88,746.16 510.4,1182.74 40.94,124.54 64.68,152.78 98.39,264.43 141.59,468.83 175.59,580.76 263.27,1097.29 60.95,359.12 100.19,862.3 99.28,1261.26 -0.89,392.67 -11.34,989.75 120.9,1239.65z"/>
   <path class="fil0 str0" d="M4918.23 9503.67c-100.3,-149.78 -210.03,-213.69 -320.22,-314.71 -377.93,-346.47 -649.42,-693.74 -883.13,-1142.58 -68.42,-131.43 -217.68,-509.73 -217.68,-689.36 235.35,19.58 825.17,165.85 1115,215.33 168.33,28.75 361.86,78.92 545.98,119.18l557.04 138.36c695.99,202.1 873.36,302.43 1192.72,802.76 63.5,99.49 205.08,364.16 277.88,417.51 -3.7,-166.19 -127.75,-466.86 -185.17,-600.94 -66.96,-156.35 -122.96,-231.24 -228.32,-346.13l-104.93 -106.71c-433.84,-399.85 -1125.75,-517.71 -1677.89,-680.41 -337.59,-99.46 -1674.33,-412.47 -1945.83,-412.47 0,569.66 322.43,1163.17 606.02,1631.35l170.37 222.68c4.1,4.68 10.01,11.43 14.15,16.08l198.11 194.93c60.77,55.07 95.8,91.78 152.52,149.84 158.46,162.23 515.58,367.18 733.38,385.29z"/>
   <path class="fil0 str0" d="M2257.6 7508.2c0,396.99 10.18,378.41 189.68,777.81l478.02 731.35c240.16,281.34 288.93,337.07 602.14,546.78 -27.44,329.62 -93.33,762.52 -177.4,1031.99 -130.96,419.77 -337.98,903.09 -682.6,1191.94l-324.38 250.1c-173.03,113.88 -640.27,331.97 -901.81,337.8l0 60.46c468.37,38.98 96.58,15.17 483.62,-0.12 953.08,-37.6 1530.4,-866.62 1730.53,-1716.22 13.74,-58.34 23.86,-150.46 41.61,-230.51 69.88,-315.26 50.76,-652.06 -4.95,-969.15 -136.89,-779.06 -78.77,325.65 -572.61,-666.98 -89.62,-180.12 -179.78,-386.89 -226.94,-589.4 223.04,51.97 159.66,143.02 513.98,60.48 -62,-92.6 -35.29,-53.55 -130.16,-111.7l-335.95 -298.99c-138.67,-150.86 -161.57,-242.61 -355.01,-370.64 -70.32,-46.57 -327.77,-206.21 -327.77,-35z"/>
   <path class="fil0 str0" d="M4736.82 8445.46l0 0zm0 0c-181.76,-42.34 -321.05,-228.33 -483.75,-241.87 181.33,778.35 896.22,1115.14 1595.75,1276.54 390.54,90.1 576.59,-12.43 972.02,358.29l121.94 119.94c52.53,47.29 3.33,35.65 91.87,59.31 -19.18,-230.48 -273.81,-506.47 -435.66,-683.03 -4.2,-4.6 -10.44,-10.99 -14.72,-15.51l-30.1 -30.36c-21.78,-21.76 -16.89,-17.46 -46,-44.73 -543.91,-509.48 -1332.73,-1015.87 -2012.37,-1313.4 -120.5,-52.75 -341.32,-168.64 -484.61,-180.57l725.63 695.39z"/>
   <path class="fil0 str0" d="M13021.11 14522.62l60.46 0c40.11,-172.16 75.66,-384.07 115.1,-550.07l133.39 -531.78c317.88,-1137.59 659.89,-1968.07 1340.56,-2982.96 49.16,-73.3 79.54,-131.94 124.77,-207.83 191.54,-321.32 548.92,-981.48 671.23,-1324.24 31.31,-87.72 62.04,-156.4 94.71,-237.87 247.32,-616.61 332.06,-1329.8 332.06,-2026.25l-90.7 0c0,218.56 -59.98,368.43 -94.63,570.55 -100.1,584.03 -215.92,1024.23 -428.18,1567.3l-649.8 1345.68c-17.66,32.17 -33.77,66.62 -52.75,98.44l-453.11 726.01c-263.45,477.66 -438.64,634.95 -706.09,1289.41 -298.55,730.57 -397.02,1241.56 -397.02,2263.61z"/>
   <path class="fil0 str0" d="M18009.66 5905.75c-107.44,43.76 -7.08,-0.3 -100.61,48.97 -61.87,32.59 -42.2,31.92 -100.27,52.35 -89.8,31.58 -175.02,19.63 -282.58,19.63 7.51,8.98 22.85,3.43 30.08,18.12l91.12 37.57c37.28,9.21 87.22,6.44 132.08,14.82 135.92,25.39 20.82,81.28 220.92,-2.89 165.05,-69.44 60.38,-41.29 169.9,-117.99 99.12,-69.43 111.6,-13.59 202.32,-70.72l181.41 268.68c92.8,-34.39 30.14,58.73 90.71,-62.55l0.14 35.89c181.95,32.62 267.03,171.47 338.9,326.1 81.48,175.31 135.12,522.62 145.92,732.99 7.33,143.48 -23.61,207.49 -30.56,332.59 -8.94,160.69 -16.27,211 -33.7,359.37 -25.88,220.17 -75.2,493.92 -27.65,697.96l28.63 -92.29c58.06,-285.99 190.78,-1639.69 229.04,-1707.65 65.41,-116.24 142.78,90.11 242.38,181.2 197.43,180.57 262.16,-44.56 326.47,187.53 33.53,121.03 52.52,271.3 95.55,418.44l166.37 408.08c0,-340.68 38.53,-496.86 -66.89,-840.16 -103.14,-335.9 -368.02,-606.86 -633,-818.25 -304.78,-243.11 -289.71,-369.94 -440.65,-526.86 -84.42,-87.76 -197.11,-154.14 -250.26,-233.5 13.45,-50.68 14.29,-69.65 30.24,-120.79 -110.79,18.69 -11.6,-27.24 143.57,-220.01 62.44,-77.58 169.82,-201.11 203.09,-287.95 47.31,-123.46 -8.93,-38.26 36.36,-173.66 43.56,-130.28 44.36,-348.26 -27.94,-487.95 -34.78,-67.21 -14.59,-35.8 -68.29,-80.7l19.08 312.85c-209.39,167.23 -527.89,692.53 -678.4,932.11l-239.95 357.55c-54.47,45.57 -99.46,34.26 -153.33,136.9l9.8 -35.78z"/>
   <path class="fil0 str0" d="M18160.97 11771.27c0,1083.43 35.21,2287.69 545.63,3203.47 102.23,183.41 294.44,547.84 512.6,606.09 -40.98,-175.9 -442.1,-878 -544.79,-1269.3l-179.26 -1181.3c-12.99,-162.49 -5.26,-296.45 -23.56,-429.95 -39.04,-284.8 0.38,-628.41 20.39,-870.12 26.46,-319.65 -0.84,-1223.13 1.98,-1691.96 1.81,-299.87 -64.88,-543.4 -121.34,-785.7l-60.47 0c0,455.48 -92.79,843.79 -91.54,1178.32 1.6,423.51 -59.64,788.53 -59.64,1240.45z"/>
   <path class="fil0 str0" d="M23512.51 12648.07c-389.86,0 -810.64,-61.86 -1159.52,-231.28 -77.56,-37.66 -709.53,-380.5 -775.5,-312.94 -99.63,102.01 687.95,631.2 860.61,711.59 1194.71,556.22 2208.7,161.3 2888.96,-862.28 168.53,-253.58 521.1,-1120.53 185.35,-693.57l-434.88 534.74c-379.2,409.29 -976.12,853.74 -1565.02,853.74z"/>
   <path class="fil0 str0" d="M21275.14 12829.48c0,509.68 189.96,986.96 456.05,1297.55l41.24 49.47c692.89,830.97 1921.48,298.3 1921.48,-772.56 -394.76,0 -165.1,29.11 -597.07,461.14 -801.74,801.81 -1471.24,80.25 -1598.17,-805.6 -58.26,-406.62 2.49,-172.03 -102.58,-623.05 -97.75,71.61 -120.95,269 -120.95,393.05z"/>
   <path class="fil0 str0" d="M19400.6 12043.38c0,288.52 -41.83,302.35 453.52,302.35 391.94,0 845.33,-214.88 1145.04,-336.45 228.84,-92.84 821.99,-362.41 941.15,-540.35 -329.28,0 -774.98,133.81 -1047.19,222.66l-682.03 255.25c-258.47,111.71 -632.88,150.91 -440.19,-319.07 148.29,-361.7 659.66,-1081.04 687.91,-1186.82 -117.94,9.81 -150.7,67.21 -228.49,134.33 -4.73,4.08 -11.58,9.82 -16.34,13.91 -386.34,332.39 -813.38,947.49 -813.38,1454.19z"/>
   <path class="fil0 str0" d="M24419.54 15157.56c0,426.86 -60.46,701.41 -60.46,1179.14 0,120.55 85.64,90.7 302.33,90.7 360.33,0 137.51,-1548.09 41.44,-1915.98 -54.06,-207.01 -125.66,-401.12 -196.78,-589.32 -110.81,-293.21 -440.01,-842.28 -364.2,-428.86 81.66,445.32 277.67,1325.14 277.67,1664.32z"/>
   <path class="fil0 str0" d="M21547.27 15973.88c123.62,530.67 814.9,175.92 1035.49,-22.7 177.3,-159.64 332.17,-298.96 499.5,-468.02 75.58,-76.38 136.06,-158.28 205.84,-247.67 198.04,-253.69 452,-603.61 526.75,-924.51 -173.1,14.4 -301.68,255.45 -506.26,461.25 -88.11,88.61 -160.26,145.07 -259.13,224.61 -109.57,88.15 -170.18,152.74 -279.19,234.82 -352.29,265.2 -529.65,344.46 -955.57,495.68 -164.56,58.41 -183.01,120.43 -267.43,246.54z"/>
   <path class="fil0 str0" d="M1259.84 14431.91c0,366.41 587.85,656.21 867.43,765.25 78.89,30.75 121.02,38.02 205.73,66.38 138.76,46.45 79.44,39.34 257.25,46.51l484.95 0c379.99,-8.05 1031.89,-377.1 1056.94,-606.02 -209.54,100.54 -392.79,104.83 -651.3,165.04 -236.34,55.04 -469.24,107.07 -739.5,107.07 -80.58,0 34.64,-40.1 -116.74,-48.12 -414.56,-21.97 -82.55,16.75 -481.37,-79.41l-611.27 -144.58 0 -90.71c133.73,-2.97 64.54,10.08 146.19,-35.2 119.42,-66.2 245.93,-193.89 277.08,-327.61 -128.64,0 -695.39,-131.85 -695.39,181.4z"/>
   <path class="fil0 str0" d="M897.01 14159.81c-35.39,-132.57 -149.36,-144.63 -260.17,-372.31 -172.79,-355.07 -77.99,-918.39 -72.39,-1169.66 255.43,135.17 387.24,272.58 582.63,475.59l505.8 552.38c-4.77,-214.66 -382.81,-909.32 -591.75,-1131.61 -367.26,-390.69 -493.59,-307.32 -708.32,-410.35 -152.96,318.78 -150.92,895.14 -91.75,1240.66 64.64,377.52 349.05,748.45 635.95,815.3z"/>
   <path class="fil0 str0" d="M13716.49 4273.09c252.63,-5.63 855.48,-134.26 1101.53,-259.03 253.28,-128.42 379.97,-264.05 379.97,-527.07 0,-150.08 -71.64,-149.61 -129.76,-263.29 -45.2,-88.39 -71.76,-196.81 -112.12,-280.93 -126.76,33.85 -299.84,140.51 -401.06,233.86 -128.18,118.2 -414.15,637.22 -694.9,907.53 -72.54,69.84 -117.17,89.69 -143.66,188.93z"/>
   <path class="fil0 str0" d="M22998.52 10229.31c0,278.95 208.72,332.58 483.75,332.58 156.32,0 423.29,-221.1 423.29,-362.81 0,-175.48 -77.73,-267.37 -90.71,-423.29 -125.45,10.45 -103.38,18.8 -165.91,106.2 -49.94,69.8 -76.26,121.82 -136.43,165.9 -5.42,-4.69 -14.65,-18.31 -16.87,-13.35l-31.62 -28.86c-124.49,-150.34 -2.23,-152.36 -163.16,-260.13 -152.63,40.76 -302.34,329.6 -302.34,483.76z"/>
   <path class="fil0 str0" d="M4736.82 11287.52c480.77,0 396.74,-104.02 1150.35,-30.58 262.29,25.57 390.42,78.13 102.33,-224.34 -286.24,-300.51 -823.92,-309.68 -1090.09,-36.02l-79.64 101.79c-48.21,69.78 -74.48,87.53 -82.95,189.15z"/>
   <path class="fil0 str0" d="M11811.72 3728.86c89.82,-23.97 123.18,-73.25 199.11,-133.47 78.48,-62.25 117.82,-107.68 186.4,-176.41 61.99,-62.19 106.62,-103.12 165.53,-167.03l86.54 -94.87c31.07,-32.34 60.69,-61.61 88.2,-93.2 160.75,-184.44 518.11,-605.53 574.3,-846.74 -206.06,17.14 -605.69,514.26 -732.42,658.37 -109.86,124.91 -196.79,269.76 -295.66,399.71 -67.42,88.62 -242.5,343.11 -272,453.64z"/>
   <path class="fil0 str0" d="M6520.66 6843.03c194.93,-4.34 742.81,-305.09 912.79,-387.3 423.58,-204.88 803.62,-206.93 810.58,-519.74 -237.28,0 -333.44,53.97 -498.69,136.24l-420.87 244.28c-263.01,146.01 -652.68,300.83 -803.81,526.52z"/>
   <path class="fil0 str0" d="M4706.6 11620.1c0,357.09 386.65,393.05 695.38,393.05 -48.67,-182.27 -105.29,-71.12 -211.65,-272.13l302.36 -151.16c-123.07,-167.98 -786.09,-236.86 -786.09,30.24z"/>
   <path class="fil0 str0" d="M22665.93 9896.72c158.02,-13.13 72.19,-36.26 296.23,-187.52 109.54,-73.96 166.8,-125.42 287.1,-196.66 148.94,-88.21 179.7,-80.63 350.92,-132.86 162.11,-49.41 233.44,-59.86 275.14,-238.82 -120.11,-9.99 -72.82,-30.22 -151.17,-30.22 -301.26,0 -601.76,172.31 -761.66,357.01l-96.39 115.26c-4.08,4.73 -9.94,11.47 -14.06,16.19 -77.81,89.57 -155.83,167.66 -186.11,297.62z"/>
   <polygon class="fil0 str0" points="6520.66,6843.03 6490.42,6843.03 6515.62,6878.3 "/>
  </g>
 </g>
</svg>
